<svg width="132" height="46" viewBox="0 0 132 46" fill="none" xmlns="http://www.w3.org/2000/svg">
<rect width="132" height="46" rx="6" fill="black"/>
<path d="M33.2977 11.5288C32.0747 11.6134 30.6453 12.3962 29.8122 13.4157C29.0523 14.3404 28.4272 15.714 28.6709 17.0488C30.0072 17.0904 31.3879 16.2889 32.188 15.2523C32.9364 14.2874 33.5028 12.9224 33.2977 11.5288Z" fill="white"/>
<path d="M38.1339 19.2274C36.9597 17.7549 35.3094 16.9004 33.7509 16.9004C31.6934 16.9004 30.8231 17.8854 29.3936 17.8854C27.9197 17.8854 26.7999 16.9033 25.0206 16.9033C23.2728 16.9033 21.4118 17.9714 20.2318 19.7981C18.5729 22.3702 18.8568 27.2064 21.5451 31.3256C22.5072 32.7995 23.7919 34.457 25.4722 34.4713C26.9677 34.4856 27.3892 33.5121 29.4151 33.5021C31.4411 33.4906 31.8253 34.4842 33.3179 34.4684C34.9997 34.4555 36.3546 32.6189 37.3167 31.1449C38.0063 30.0883 38.263 29.5563 38.7978 28.3634C34.9079 26.8823 34.2842 21.3508 38.1339 19.2274Z" fill="white"/>
<path d="M52.56 20V14.24H54.336C54.3947 14.24 54.4973 14.2413 54.644 14.244C54.7907 14.2467 54.9307 14.2573 55.064 14.276C55.5093 14.3347 55.8813 14.4973 56.18 14.764C56.4813 15.028 56.708 15.364 56.86 15.772C57.012 16.18 57.088 16.6293 57.088 17.12C57.088 17.6107 57.012 18.06 56.86 18.468C56.708 18.876 56.4813 19.2133 56.18 19.48C55.8813 19.744 55.5093 19.9053 55.064 19.964C54.9307 19.98 54.7893 19.9907 54.64 19.996C54.4933 19.9987 54.392 20 54.336 20H52.56ZM53.292 19.32H54.336C54.4373 19.32 54.5507 19.3173 54.676 19.312C54.8013 19.304 54.9107 19.292 55.004 19.276C55.3187 19.2173 55.5733 19.0853 55.768 18.88C55.9627 18.6747 56.1053 18.4187 56.196 18.112C56.2867 17.8053 56.332 17.4747 56.332 17.12C56.332 16.7573 56.2853 16.4227 56.192 16.116C56.1013 15.8093 55.9587 15.5547 55.764 15.352C55.5693 15.1493 55.316 15.02 55.004 14.964C54.9107 14.9453 54.8 14.9333 54.672 14.928C54.544 14.9227 54.432 14.92 54.336 14.92H53.292V19.32ZM59.8453 20.12C59.416 20.12 59.0453 20.0227 58.7333 19.828C58.424 19.6333 58.1853 19.364 58.0173 19.02C57.8493 18.676 57.7653 18.2813 57.7653 17.836C57.7653 17.3827 57.8506 16.9853 58.0213 16.644C58.192 16.3027 58.4333 16.0373 58.7453 15.848C59.0573 15.656 59.424 15.56 59.8453 15.56C60.2773 15.56 60.6493 15.6573 60.9613 15.852C61.2733 16.044 61.512 16.312 61.6773 16.656C61.8453 16.9973 61.9293 17.3907 61.9293 17.836C61.9293 18.2867 61.8453 18.684 61.6773 19.028C61.5093 19.3693 61.2693 19.6373 60.9573 19.832C60.6453 20.024 60.2746 20.12 59.8453 20.12ZM59.8453 19.444C60.2933 19.444 60.6266 19.2947 60.8453 18.996C61.064 18.6973 61.1733 18.3107 61.1733 17.836C61.1733 17.348 61.0626 16.96 60.8413 16.672C60.62 16.3813 60.288 16.236 59.8453 16.236C59.544 16.236 59.296 16.304 59.1013 16.44C58.9066 16.576 58.7613 16.764 58.6653 17.004C58.5693 17.244 58.5213 17.5213 58.5213 17.836C58.5213 18.3213 58.6333 18.7107 58.8573 19.004C59.0813 19.2973 59.4106 19.444 59.8453 19.444ZM63.5738 20L62.2538 15.676L62.9618 15.68L63.9258 18.84L64.8978 15.68H65.5258L66.4938 18.84L67.4618 15.68H68.1658L66.8458 20H66.2538L65.2098 16.716L64.1658 20H63.5738ZM71.9641 20V17.836C71.9641 17.6307 71.9455 17.4333 71.9081 17.244C71.8735 17.0547 71.8108 16.8853 71.7201 16.736C71.6321 16.584 71.5121 16.464 71.3601 16.376C71.2108 16.288 71.0215 16.244 70.7921 16.244C70.6135 16.244 70.4508 16.2747 70.3041 16.336C70.1601 16.3947 70.0361 16.4853 69.9321 16.608C69.8281 16.7307 69.7468 16.8853 69.6881 17.072C69.6321 17.256 69.6041 17.4733 69.6041 17.724L69.1361 17.58C69.1361 17.1613 69.2108 16.8027 69.3601 16.504C69.5121 16.2027 69.7241 15.972 69.9961 15.812C70.2708 15.6493 70.5935 15.568 70.9641 15.568C71.2441 15.568 71.4828 15.612 71.6801 15.7C71.8775 15.788 72.0415 15.9053 72.1721 16.052C72.3028 16.196 72.4055 16.3587 72.4801 16.54C72.5548 16.7187 72.6068 16.9013 72.6361 17.088C72.6681 17.272 72.6841 17.4467 72.6841 17.612V20H71.9641ZM68.8841 20V15.68H69.5241V16.836H69.6041V20H68.8841ZM73.8041 20V14.12H74.5161V20H73.8041ZM77.5563 20.12C77.1269 20.12 76.7563 20.0227 76.4443 19.828C76.1349 19.6333 75.8963 19.364 75.7283 19.02C75.5603 18.676 75.4763 18.2813 75.4763 17.836C75.4763 17.3827 75.5616 16.9853 75.7323 16.644C75.9029 16.3027 76.1443 16.0373 76.4563 15.848C76.7683 15.656 77.1349 15.56 77.5563 15.56C77.9883 15.56 78.3603 15.6573 78.6723 15.852C78.9843 16.044 79.2229 16.312 79.3883 16.656C79.5563 16.9973 79.6403 17.3907 79.6403 17.836C79.6403 18.2867 79.5563 18.684 79.3883 19.028C79.2203 19.3693 78.9803 19.6373 78.6683 19.832C78.3563 20.024 77.9856 20.12 77.5563 20.12ZM77.5563 19.444C78.0043 19.444 78.3376 19.2947 78.5563 18.996C78.7749 18.6973 78.8843 18.3107 78.8843 17.836C78.8843 17.348 78.7736 16.96 78.5523 16.672C78.3309 16.3813 77.9989 16.236 77.5563 16.236C77.2549 16.236 77.0069 16.304 76.8123 16.44C76.6176 16.576 76.4723 16.764 76.3763 17.004C76.2803 17.244 76.2323 17.5213 76.2323 17.836C76.2323 18.3213 76.3443 18.7107 76.5683 19.004C76.7923 19.2973 77.1216 19.444 77.5563 19.444ZM81.7489 20.12C81.4263 20.12 81.1556 20.0613 80.9369 19.944C80.7209 19.824 80.5569 19.6667 80.4449 19.472C80.3356 19.2773 80.2809 19.064 80.2809 18.832C80.2809 18.6053 80.3236 18.4093 80.4089 18.244C80.4969 18.076 80.6196 17.9373 80.7769 17.828C80.9343 17.716 81.1223 17.628 81.3409 17.564C81.5463 17.508 81.7756 17.46 82.0289 17.42C82.2849 17.3773 82.5436 17.3387 82.8049 17.304C83.0663 17.2693 83.3103 17.236 83.5369 17.204L83.2809 17.352C83.2889 16.968 83.2116 16.684 83.0489 16.5C82.8889 16.316 82.6116 16.224 82.2169 16.224C81.9556 16.224 81.7263 16.284 81.5289 16.404C81.3343 16.5213 81.1969 16.7133 81.1169 16.98L80.4409 16.776C80.5449 16.3973 80.7463 16.1 81.0449 15.884C81.3436 15.668 81.7369 15.56 82.2249 15.56C82.6169 15.56 82.9529 15.6307 83.2329 15.772C83.5156 15.9107 83.7183 16.1213 83.8409 16.404C83.9023 16.5373 83.9409 16.6827 83.9569 16.84C83.9729 16.9947 83.9809 17.1573 83.9809 17.328V20H83.3489V18.964L83.4969 19.06C83.3343 19.4093 83.1063 19.6733 82.8129 19.852C82.5223 20.0307 82.1676 20.12 81.7489 20.12ZM81.8569 19.524C82.1129 19.524 82.3343 19.4787 82.5209 19.388C82.7103 19.2947 82.8623 19.1733 82.9769 19.024C83.0916 18.872 83.1663 18.7067 83.2009 18.528C83.2409 18.3947 83.2623 18.2467 83.2649 18.084C83.2703 17.9187 83.2729 17.792 83.2729 17.704L83.5209 17.812C83.2889 17.844 83.0609 17.8747 82.8369 17.904C82.6129 17.9333 82.4009 17.9653 82.2009 18C82.0009 18.032 81.8209 18.0707 81.6609 18.116C81.5436 18.1533 81.4329 18.2013 81.3289 18.26C81.2276 18.3187 81.1449 18.3947 81.0809 18.488C81.0196 18.5787 80.9889 18.692 80.9889 18.828C80.9889 18.9453 81.0183 19.0573 81.0769 19.164C81.1383 19.2707 81.2316 19.3573 81.3569 19.424C81.4849 19.4907 81.6516 19.524 81.8569 19.524ZM86.7169 20.12C86.3143 20.12 85.9689 20.02 85.6809 19.82C85.3929 19.6173 85.1703 19.344 85.0129 19C84.8583 18.656 84.7809 18.268 84.7809 17.836C84.7809 17.404 84.8583 17.016 85.0129 16.672C85.1703 16.328 85.3929 16.0573 85.6809 15.86C85.9689 15.66 86.3129 15.56 86.7129 15.56C87.1209 15.56 87.4636 15.6587 87.7409 15.856C88.0183 16.0533 88.2276 16.324 88.3689 16.668C88.5129 17.012 88.5849 17.4013 88.5849 17.836C88.5849 18.2653 88.5129 18.6533 88.3689 19C88.2276 19.344 88.0183 19.6173 87.7409 19.82C87.4636 20.02 87.1223 20.12 86.7169 20.12ZM86.8049 19.468C87.0956 19.468 87.3343 19.3987 87.5209 19.26C87.7076 19.1187 87.8449 18.9253 87.9329 18.68C88.0236 18.432 88.0689 18.1507 88.0689 17.836C88.0689 17.516 88.0236 17.2347 87.9329 16.992C87.8449 16.7467 87.7089 16.556 87.5249 16.42C87.3409 16.2813 87.1076 16.212 86.8249 16.212C86.5316 16.212 86.2889 16.284 86.0969 16.428C85.9076 16.572 85.7663 16.7667 85.6729 17.012C85.5823 17.2573 85.5369 17.532 85.5369 17.836C85.5369 18.1427 85.5836 18.42 85.6769 18.668C85.7703 18.9133 85.9103 19.108 86.0969 19.252C86.2863 19.396 86.5223 19.468 86.8049 19.468ZM88.0689 20V16.82H87.9889V14.24H88.7049V20H88.0689ZM93.2672 20.12C92.8379 20.12 92.4672 20.0227 92.1552 19.828C91.8459 19.6333 91.6072 19.364 91.4392 19.02C91.2712 18.676 91.1872 18.2813 91.1872 17.836C91.1872 17.3827 91.2725 16.9853 91.4432 16.644C91.6139 16.3027 91.8552 16.0373 92.1672 15.848C92.4792 15.656 92.8459 15.56 93.2672 15.56C93.6992 15.56 94.0712 15.6573 94.3832 15.852C94.6952 16.044 94.9339 16.312 95.0992 16.656C95.2672 16.9973 95.3512 17.3907 95.3512 17.836C95.3512 18.2867 95.2672 18.684 95.0992 19.028C94.9312 19.3693 94.6912 19.6373 94.3792 19.832C94.0672 20.024 93.6965 20.12 93.2672 20.12ZM93.2672 19.444C93.7152 19.444 94.0485 19.2947 94.2672 18.996C94.4859 18.6973 94.5952 18.3107 94.5952 17.836C94.5952 17.348 94.4845 16.96 94.2632 16.672C94.0419 16.3813 93.7099 16.236 93.2672 16.236C92.9659 16.236 92.7179 16.304 92.5232 16.44C92.3285 16.576 92.1832 16.764 92.0872 17.004C91.9912 17.244 91.9432 17.5213 91.9432 17.836C91.9432 18.3213 92.0552 18.7107 92.2792 19.004C92.5032 19.2973 92.8325 19.444 93.2672 19.444ZM99.3079 20V17.836C99.3079 17.6307 99.2892 17.4333 99.2519 17.244C99.2172 17.0547 99.1545 16.8853 99.0639 16.736C98.9759 16.584 98.8559 16.464 98.7039 16.376C98.5545 16.288 98.3652 16.244 98.1359 16.244C97.9572 16.244 97.7945 16.2747 97.6479 16.336C97.5039 16.3947 97.3799 16.4853 97.2759 16.608C97.1719 16.7307 97.0905 16.8853 97.0319 17.072C96.9759 17.256 96.9479 17.4733 96.9479 17.724L96.4799 17.58C96.4799 17.1613 96.5545 16.8027 96.7039 16.504C96.8559 16.2027 97.0679 15.972 97.3399 15.812C97.6145 15.6493 97.9372 15.568 98.3079 15.568C98.5879 15.568 98.8265 15.612 99.0239 15.7C99.2212 15.788 99.3852 15.9053 99.5159 16.052C99.6465 16.196 99.7492 16.3587 99.8239 16.54C99.8985 16.7187 99.9505 16.9013 99.9799 17.088C100.012 17.272 100.028 17.4467 100.028 17.612V20H99.3079ZM96.2279 20V15.68H96.8679V16.836H96.9479V20H96.2279Z" fill="white"/>
<path d="M52.24 33L55.048 24.36H56.854L59.662 33H58.36L55.774 25.116H56.098L53.542 33H52.24ZM53.698 31.05V29.874H58.21V31.05H53.698ZM63.7804 33.18C63.1604 33.18 62.6404 33.03 62.2204 32.73C61.8004 32.426 61.4824 32.016 61.2664 31.5C61.0504 30.984 60.9424 30.402 60.9424 29.754C60.9424 29.106 61.0484 28.524 61.2604 28.008C61.4764 27.492 61.7924 27.086 62.2084 26.79C62.6284 26.49 63.1444 26.34 63.7564 26.34C64.3644 26.34 64.8884 26.49 65.3284 26.79C65.7724 27.086 66.1144 27.492 66.3544 28.008C66.5944 28.52 66.7144 29.102 66.7144 29.754C66.7144 30.402 66.5944 30.986 66.3544 31.506C66.1184 32.022 65.7804 32.43 65.3404 32.73C64.9044 33.03 64.3844 33.18 63.7804 33.18ZM60.7324 35.88V26.52H61.8484V31.182H61.9924V35.88H60.7324ZM63.6064 32.046C64.0064 32.046 64.3364 31.944 64.5964 31.74C64.8604 31.536 65.0564 31.262 65.1844 30.918C65.3164 30.57 65.3824 30.182 65.3824 29.754C65.3824 29.33 65.3164 28.946 65.1844 28.602C65.0564 28.258 64.8584 27.984 64.5904 27.78C64.3224 27.576 63.9804 27.474 63.5644 27.474C63.1724 27.474 62.8484 27.57 62.5924 27.762C62.3404 27.954 62.1524 28.222 62.0284 28.566C61.9084 28.91 61.8484 29.306 61.8484 29.754C61.8484 30.202 61.9084 30.598 62.0284 30.942C62.1484 31.286 62.3384 31.556 62.5984 31.752C62.8584 31.948 63.1944 32.046 63.6064 32.046ZM71.0812 33.18C70.4612 33.18 69.9412 33.03 69.5212 32.73C69.1012 32.426 68.7832 32.016 68.5672 31.5C68.3512 30.984 68.2432 30.402 68.2432 29.754C68.2432 29.106 68.3492 28.524 68.5612 28.008C68.7772 27.492 69.0932 27.086 69.5092 26.79C69.9292 26.49 70.4452 26.34 71.0572 26.34C71.6652 26.34 72.1892 26.49 72.6292 26.79C73.0732 27.086 73.4152 27.492 73.6552 28.008C73.8952 28.52 74.0152 29.102 74.0152 29.754C74.0152 30.402 73.8952 30.986 73.6552 31.506C73.4192 32.022 73.0812 32.43 72.6412 32.73C72.2052 33.03 71.6852 33.18 71.0812 33.18ZM68.0332 35.88V26.52H69.1492V31.182H69.2932V35.88H68.0332ZM70.9072 32.046C71.3072 32.046 71.6372 31.944 71.8972 31.74C72.1612 31.536 72.3572 31.262 72.4852 30.918C72.6172 30.57 72.6832 30.182 72.6832 29.754C72.6832 29.33 72.6172 28.946 72.4852 28.602C72.3572 28.258 72.1592 27.984 71.8912 27.78C71.6232 27.576 71.2812 27.474 70.8652 27.474C70.4732 27.474 70.1492 27.57 69.8932 27.762C69.6412 27.954 69.4532 28.222 69.3292 28.566C69.2092 28.91 69.1492 29.306 69.1492 29.754C69.1492 30.202 69.2092 30.598 69.3292 30.942C69.4492 31.286 69.6392 31.556 69.8992 31.752C70.1592 31.948 70.4952 32.046 70.9072 32.046ZM80.8743 33.18C80.2543 33.18 79.6943 33.074 79.1943 32.862C78.6983 32.646 78.2883 32.34 77.9643 31.944C77.6443 31.544 77.4363 31.07 77.3403 30.522L78.6483 30.324C78.7803 30.852 79.0563 31.264 79.4763 31.56C79.8963 31.852 80.3863 31.998 80.9463 31.998C81.2943 31.998 81.6143 31.944 81.9063 31.836C82.1983 31.724 82.4323 31.566 82.6083 31.362C82.7883 31.154 82.8783 30.906 82.8783 30.618C82.8783 30.462 82.8503 30.324 82.7943 30.204C82.7423 30.084 82.6683 29.98 82.5723 29.892C82.4803 29.8 82.3663 29.722 82.2303 29.658C82.0983 29.59 81.9523 29.532 81.7923 29.484L79.5783 28.83C79.3623 28.766 79.1423 28.684 78.9183 28.584C78.6943 28.48 78.4883 28.346 78.3003 28.182C78.1163 28.014 77.9663 27.808 77.8503 27.564C77.7343 27.316 77.6763 27.016 77.6763 26.664C77.6763 26.132 77.8123 25.682 78.0843 25.314C78.3603 24.942 78.7323 24.662 79.2003 24.474C79.6683 24.282 80.1923 24.186 80.7723 24.186C81.3563 24.194 81.8783 24.298 82.3383 24.498C82.8023 24.698 83.1863 24.986 83.4903 25.362C83.7983 25.734 84.0103 26.186 84.1263 26.718L82.7823 26.946C82.7223 26.622 82.5943 26.344 82.3983 26.112C82.2023 25.876 81.9623 25.696 81.6783 25.572C81.3943 25.444 81.0863 25.378 80.7543 25.374C80.4343 25.366 80.1403 25.414 79.8723 25.518C79.6083 25.622 79.3963 25.768 79.2363 25.956C79.0803 26.144 79.0023 26.36 79.0023 26.604C79.0023 26.844 79.0723 27.038 79.2123 27.186C79.3523 27.334 79.5243 27.452 79.7283 27.54C79.9363 27.624 80.1423 27.694 80.3463 27.75L81.9423 28.2C82.1423 28.256 82.3683 28.332 82.6203 28.428C82.8763 28.52 83.1223 28.65 83.3583 28.818C83.5983 28.986 83.7963 29.21 83.9523 29.49C84.1083 29.766 84.1863 30.114 84.1863 30.534C84.1863 30.97 84.0983 31.354 83.9223 31.686C83.7463 32.014 83.5043 32.29 83.1963 32.514C82.8923 32.734 82.5403 32.9 82.1403 33.012C81.7403 33.124 81.3183 33.18 80.8743 33.18ZM89.173 33C88.765 33.08 88.365 33.114 87.973 33.102C87.581 33.09 87.231 33.014 86.923 32.874C86.615 32.734 86.383 32.514 86.227 32.214C86.087 31.946 86.011 31.674 85.999 31.398C85.991 31.118 85.987 30.802 85.987 30.45V24.72H87.247V30.39C87.247 30.65 87.249 30.876 87.253 31.068C87.261 31.26 87.303 31.422 87.379 31.554C87.523 31.802 87.751 31.944 88.063 31.98C88.379 32.012 88.749 31.998 89.173 31.938V33ZM84.745 27.528V26.52H89.173V27.528H84.745ZM93.0603 33.18C92.4123 33.18 91.8503 33.034 91.3743 32.742C90.8983 32.45 90.5303 32.048 90.2703 31.536C90.0143 31.02 89.8863 30.426 89.8863 29.754C89.8863 29.078 90.0183 28.484 90.2823 27.972C90.5463 27.456 90.9163 27.056 91.3923 26.772C91.8683 26.484 92.4243 26.34 93.0603 26.34C93.7083 26.34 94.2703 26.486 94.7463 26.778C95.2223 27.07 95.5903 27.472 95.8503 27.984C96.1103 28.496 96.2403 29.086 96.2403 29.754C96.2403 30.43 96.1083 31.026 95.8443 31.542C95.5843 32.054 95.2163 32.456 94.7403 32.748C94.2643 33.036 93.7043 33.18 93.0603 33.18ZM93.0603 31.998C93.6803 31.998 94.1423 31.79 94.4463 31.374C94.7543 30.954 94.9083 30.414 94.9083 29.754C94.9083 29.078 94.7523 28.538 94.4403 28.134C94.1323 27.726 93.6723 27.522 93.0603 27.522C92.6403 27.522 92.2943 27.618 92.0223 27.81C91.7503 27.998 91.5483 28.26 91.4163 28.596C91.2843 28.928 91.2183 29.314 91.2183 29.754C91.2183 30.434 91.3743 30.978 91.6863 31.386C91.9983 31.794 92.4563 31.998 93.0603 31.998ZM97.5588 33V26.52H98.6748V28.092L98.5188 27.888C98.5988 27.68 98.7028 27.49 98.8308 27.318C98.9588 27.142 99.1068 26.998 99.2748 26.886C99.4388 26.766 99.6208 26.674 99.8208 26.61C100.025 26.542 100.233 26.502 100.445 26.49C100.657 26.474 100.861 26.484 101.057 26.52V27.696C100.845 27.64 100.609 27.624 100.349 27.648C100.093 27.672 99.8568 27.754 99.6408 27.894C99.4368 28.026 99.2748 28.186 99.1548 28.374C99.0388 28.562 98.9548 28.772 98.9028 29.004C98.8508 29.232 98.8248 29.474 98.8248 29.73V33H97.5588ZM104.956 33.18C104.312 33.18 103.746 33.04 103.258 32.76C102.774 32.476 102.396 32.082 102.124 31.578C101.856 31.07 101.722 30.482 101.722 29.814C101.722 29.106 101.854 28.492 102.118 27.972C102.386 27.452 102.758 27.05 103.234 26.766C103.71 26.482 104.264 26.34 104.896 26.34C105.556 26.34 106.118 26.494 106.582 26.802C107.046 27.106 107.392 27.54 107.62 28.104C107.852 28.668 107.944 29.338 107.896 30.114H106.642V29.658C106.634 28.906 106.49 28.35 106.21 27.99C105.934 27.63 105.512 27.45 104.944 27.45C104.316 27.45 103.844 27.648 103.528 28.044C103.212 28.44 103.054 29.012 103.054 29.76C103.054 30.472 103.212 31.024 103.528 31.416C103.844 31.804 104.3 31.998 104.896 31.998C105.288 31.998 105.626 31.91 105.91 31.734C106.198 31.554 106.422 31.298 106.582 30.966L107.812 31.356C107.56 31.936 107.178 32.386 106.666 32.706C106.154 33.022 105.584 33.18 104.956 33.18ZM102.646 30.114V29.136H107.272V30.114H102.646Z" fill="white"/>
</svg>
