<svg width="132" height="46" viewBox="0 0 132 46" fill="none" xmlns="http://www.w3.org/2000/svg">
<rect width="132" height="46" rx="6" fill="black"/>
<g clip-path="url(#clip0_25679_8555)">
<path d="M21.2395 10.3838C20.3005 9.86485 19.1981 9.87685 18.2651 10.3913L29.1995 20.4783L32.8728 16.805L21.2395 10.3838Z" fill="white"/>
<path d="M17.1714 11.4233C16.9045 11.8598 16.7515 12.3593 16.7515 12.8888V31.1067C16.7515 31.6197 16.891 32.1087 17.1429 32.5361L28.1388 21.5403L17.1714 11.4233Z" fill="white"/>
<path d="M37.7421 19.493L34.2383 17.5596L30.301 21.4953L35.1263 25.9456L37.7436 24.5012C38.6855 23.9792 39.2495 23.0433 39.2495 21.9963C39.248 20.9494 38.6856 20.0134 37.7421 19.493Z" fill="white"/>
<path d="M29.2415 22.5571L18.2156 33.583C18.694 33.856 19.219 34 19.747 34C20.257 34 20.7699 33.871 21.2394 33.6115L33.7442 26.7104L29.2415 22.5571Z" fill="white"/>
</g>
<path d="M50.892 19.12C50.4973 19.12 50.1373 19.0507 49.812 18.912C49.4867 18.7733 49.2067 18.5747 48.972 18.316C48.7373 18.0547 48.556 17.74 48.428 17.372C48.3027 17.0013 48.24 16.584 48.24 16.12C48.24 15.5067 48.3493 14.976 48.568 14.528C48.7867 14.08 49.0947 13.7347 49.492 13.492C49.8893 13.2467 50.356 13.124 50.892 13.124C51.5373 13.124 52.0573 13.2747 52.452 13.576C52.8467 13.8747 53.1187 14.284 53.268 14.804L52.548 14.952C52.428 14.6027 52.2307 14.324 51.956 14.116C51.6813 13.908 51.3387 13.804 50.928 13.804C50.4987 13.8013 50.1413 13.8973 49.856 14.092C49.5733 14.284 49.36 14.5547 49.216 14.904C49.072 15.2533 48.9987 15.6587 48.996 16.12C48.9933 16.5787 49.064 16.9813 49.208 17.328C49.352 17.6747 49.5667 17.9467 49.852 18.144C50.14 18.3387 50.4987 18.4373 50.928 18.44C51.2987 18.4427 51.6107 18.372 51.864 18.228C52.1173 18.084 52.3133 17.876 52.452 17.604C52.5907 17.332 52.6747 17.0053 52.704 16.624H51.48V16.036H53.456C53.464 16.0893 53.468 16.1533 53.468 16.228C53.4707 16.3 53.472 16.3493 53.472 16.376C53.472 16.9013 53.3733 17.372 53.176 17.788C52.9813 18.2013 52.692 18.5267 52.308 18.764C51.9267 19.0013 51.4547 19.12 50.892 19.12ZM56.1429 19.12C55.7189 19.12 55.3483 19.0267 55.0309 18.84C54.7163 18.6507 54.4709 18.388 54.2949 18.052C54.1189 17.7133 54.0309 17.3187 54.0309 16.868C54.0309 16.396 54.1176 15.988 54.2909 15.644C54.4643 15.2973 54.7056 15.0307 55.0149 14.844C55.3269 14.6547 55.6923 14.56 56.1109 14.56C56.5456 14.56 56.9149 14.66 57.2189 14.86C57.5256 15.06 57.7549 15.3453 57.9069 15.716C58.0616 16.0867 58.1283 16.528 58.1069 17.04H57.3869V16.784C57.3789 16.2533 57.2709 15.8573 57.0629 15.596C56.8549 15.332 56.5456 15.2 56.1349 15.2C55.6949 15.2 55.3603 15.3413 55.1309 15.624C54.9016 15.9067 54.7869 16.312 54.7869 16.84C54.7869 17.3493 54.9016 17.744 55.1309 18.024C55.3603 18.304 55.6869 18.444 56.1109 18.444C56.3963 18.444 56.6443 18.3787 56.8549 18.248C57.0656 18.1173 57.2309 17.9293 57.3509 17.684L58.0349 17.92C57.8669 18.3013 57.6136 18.5973 57.2749 18.808C56.9389 19.016 56.5616 19.12 56.1429 19.12ZM54.5469 17.04V16.468H57.7389V17.04H54.5469ZM61.4095 19C61.1535 19.0507 60.9002 19.0707 60.6495 19.06C60.4015 19.052 60.1802 19.0027 59.9855 18.912C59.7908 18.8187 59.6428 18.6747 59.5415 18.48C59.4562 18.3093 59.4095 18.1373 59.4015 17.964C59.3962 17.788 59.3935 17.5893 59.3935 17.368V13.48H60.1055V17.336C60.1055 17.512 60.1068 17.6627 60.1095 17.788C60.1148 17.9133 60.1428 18.0213 60.1935 18.112C60.2895 18.2827 60.4415 18.3827 60.6495 18.412C60.8602 18.4413 61.1135 18.4333 61.4095 18.388V19ZM58.5175 15.268V14.68H61.4095V15.268H58.5175ZM63.9681 13.916V13.18H64.6801V13.916H63.9681ZM63.9681 19V14.68H64.6801V19H63.9681ZM68.2923 19C68.0363 19.0507 67.783 19.0707 67.5323 19.06C67.2843 19.052 67.063 19.0027 66.8683 18.912C66.6736 18.8187 66.5256 18.6747 66.4243 18.48C66.339 18.3093 66.2923 18.1373 66.2843 17.964C66.279 17.788 66.2763 17.5893 66.2763 17.368V13.48H66.9883V17.336C66.9883 17.512 66.9896 17.6627 66.9923 17.788C66.9976 17.9133 67.0256 18.0213 67.0763 18.112C67.1723 18.2827 67.3243 18.3827 67.5323 18.412C67.743 18.4413 67.9963 18.4333 68.2923 18.388V19ZM65.4003 15.268V14.68H68.2923V15.268H65.4003ZM72.6109 19.12C72.1816 19.12 71.8109 19.0227 71.4989 18.828C71.1896 18.6333 70.9509 18.364 70.7829 18.02C70.6149 17.676 70.5309 17.2813 70.5309 16.836C70.5309 16.3827 70.6163 15.9853 70.7869 15.644C70.9576 15.3027 71.1989 15.0373 71.5109 14.848C71.8229 14.656 72.1896 14.56 72.6109 14.56C73.0429 14.56 73.4149 14.6573 73.7269 14.852C74.0389 15.044 74.2776 15.312 74.4429 15.656C74.6109 15.9973 74.6949 16.3907 74.6949 16.836C74.6949 17.2867 74.6109 17.684 74.4429 18.028C74.2749 18.3693 74.0349 18.6373 73.7229 18.832C73.4109 19.024 73.0403 19.12 72.6109 19.12ZM72.6109 18.444C73.0589 18.444 73.3923 18.2947 73.6109 17.996C73.8296 17.6973 73.9389 17.3107 73.9389 16.836C73.9389 16.348 73.8283 15.96 73.6069 15.672C73.3856 15.3813 73.0536 15.236 72.6109 15.236C72.3096 15.236 72.0616 15.304 71.8669 15.44C71.6723 15.576 71.5269 15.764 71.4309 16.004C71.3349 16.244 71.2869 16.5213 71.2869 16.836C71.2869 17.3213 71.3989 17.7107 71.6229 18.004C71.8469 18.2973 72.1763 18.444 72.6109 18.444ZM78.6516 19V16.836C78.6516 16.6307 78.633 16.4333 78.5956 16.244C78.561 16.0547 78.4983 15.8853 78.4076 15.736C78.3196 15.584 78.1996 15.464 78.0476 15.376C77.8983 15.288 77.709 15.244 77.4796 15.244C77.301 15.244 77.1383 15.2747 76.9916 15.336C76.8476 15.3947 76.7236 15.4853 76.6196 15.608C76.5156 15.7307 76.4343 15.8853 76.3756 16.072C76.3196 16.256 76.2916 16.4733 76.2916 16.724L75.8236 16.58C75.8236 16.1613 75.8983 15.8027 76.0476 15.504C76.1996 15.2027 76.4116 14.972 76.6836 14.812C76.9583 14.6493 77.281 14.568 77.6516 14.568C77.9316 14.568 78.1703 14.612 78.3676 14.7C78.565 14.788 78.729 14.9053 78.8596 15.052C78.9903 15.196 79.093 15.3587 79.1676 15.54C79.2423 15.7187 79.2943 15.9013 79.3236 16.088C79.3556 16.272 79.3716 16.4467 79.3716 16.612V19H78.6516ZM75.5716 19V14.68H76.2116V15.836H76.2916V19H75.5716Z" fill="white"/>
<path d="M52.374 32.18C51.794 32.18 51.26 32.08 50.772 31.88C50.284 31.676 49.86 31.38 49.5 30.992C49.14 30.604 48.86 30.132 48.66 29.576C48.46 29.02 48.36 28.388 48.36 27.68C48.36 26.748 48.53 25.948 48.87 25.28C49.21 24.608 49.682 24.092 50.286 23.732C50.89 23.368 51.586 23.186 52.374 23.186C53.39 23.186 54.2 23.422 54.804 23.894C55.412 24.366 55.826 25.018 56.046 25.85L54.774 26.078C54.598 25.562 54.314 25.15 53.922 24.842C53.53 24.534 53.038 24.378 52.446 24.374C51.834 24.37 51.324 24.506 50.916 24.782C50.512 25.058 50.208 25.446 50.004 25.946C49.8 26.442 49.696 27.02 49.692 27.68C49.688 28.34 49.788 28.918 49.992 29.414C50.196 29.906 50.502 30.29 50.91 30.566C51.322 30.842 51.834 30.982 52.446 30.986C52.938 30.994 53.36 30.904 53.712 30.716C54.068 30.524 54.35 30.244 54.558 29.876C54.766 29.508 54.9 29.056 54.96 28.52H53.28V27.512H56.292C56.3 27.584 56.306 27.68 56.31 27.8C56.314 27.916 56.316 27.99 56.316 28.022C56.316 28.822 56.162 29.536 55.854 30.164C55.546 30.792 55.098 31.286 54.51 31.646C53.922 32.002 53.21 32.18 52.374 32.18ZM60.3259 32.18C59.6779 32.18 59.1159 32.034 58.6399 31.742C58.1639 31.45 57.7959 31.048 57.5359 30.536C57.2799 30.02 57.1519 29.426 57.1519 28.754C57.1519 28.078 57.2839 27.484 57.5479 26.972C57.8119 26.456 58.1819 26.056 58.6579 25.772C59.1339 25.484 59.6899 25.34 60.3259 25.34C60.9739 25.34 61.5359 25.486 62.0119 25.778C62.4879 26.07 62.8559 26.472 63.1159 26.984C63.3759 27.496 63.5059 28.086 63.5059 28.754C63.5059 29.43 63.3739 30.026 63.1099 30.542C62.8499 31.054 62.4819 31.456 62.0059 31.748C61.5299 32.036 60.9699 32.18 60.3259 32.18ZM60.3259 30.998C60.9459 30.998 61.4079 30.79 61.7119 30.374C62.0199 29.954 62.1739 29.414 62.1739 28.754C62.1739 28.078 62.0179 27.538 61.7059 27.134C61.3979 26.726 60.9379 26.522 60.3259 26.522C59.9059 26.522 59.5599 26.618 59.2879 26.81C59.0159 26.998 58.8139 27.26 58.6819 27.596C58.5499 27.928 58.4839 28.314 58.4839 28.754C58.4839 29.434 58.6399 29.978 58.9519 30.386C59.2639 30.794 59.7219 30.998 60.3259 30.998ZM67.6384 32.18C66.9904 32.18 66.4284 32.034 65.9524 31.742C65.4764 31.45 65.1084 31.048 64.8484 30.536C64.5924 30.02 64.4644 29.426 64.4644 28.754C64.4644 28.078 64.5964 27.484 64.8604 26.972C65.1244 26.456 65.4944 26.056 65.9704 25.772C66.4464 25.484 67.0024 25.34 67.6384 25.34C68.2864 25.34 68.8484 25.486 69.3244 25.778C69.8004 26.07 70.1684 26.472 70.4284 26.984C70.6884 27.496 70.8184 28.086 70.8184 28.754C70.8184 29.43 70.6864 30.026 70.4224 30.542C70.1624 31.054 69.7944 31.456 69.3184 31.748C68.8424 32.036 68.2824 32.18 67.6384 32.18ZM67.6384 30.998C68.2584 30.998 68.7204 30.79 69.0244 30.374C69.3324 29.954 69.4864 29.414 69.4864 28.754C69.4864 28.078 69.3304 27.538 69.0184 27.134C68.7104 26.726 68.2504 26.522 67.6384 26.522C67.2184 26.522 66.8724 26.618 66.6004 26.81C66.3284 26.998 66.1264 27.26 65.9944 27.596C65.8624 27.928 65.7964 28.314 65.7964 28.754C65.7964 29.434 65.9524 29.978 66.2644 30.386C66.5764 30.794 67.0344 30.998 67.6384 30.998ZM74.8069 35.06C74.4589 35.06 74.1209 35.006 73.7929 34.898C73.4689 34.79 73.1729 34.63 72.9049 34.418C72.6369 34.21 72.4149 33.952 72.2389 33.644L73.3969 33.056C73.5369 33.332 73.7369 33.534 73.9969 33.662C74.2569 33.79 74.5309 33.854 74.8189 33.854C75.1749 33.854 75.4789 33.79 75.7309 33.662C75.9829 33.538 76.1729 33.35 76.3009 33.098C76.4329 32.846 76.4969 32.534 76.4929 32.162V30.35H76.6429V25.52H77.7529V32.174C77.7529 32.346 77.7469 32.51 77.7349 32.666C77.7229 32.822 77.7009 32.978 77.6689 33.134C77.5769 33.57 77.4009 33.93 77.1409 34.214C76.8849 34.498 76.5569 34.71 76.1569 34.85C75.7609 34.99 75.3109 35.06 74.8069 35.06ZM74.7109 32.18C74.1069 32.18 73.5849 32.03 73.1449 31.73C72.7089 31.43 72.3709 31.022 72.1309 30.506C71.8949 29.986 71.7769 29.402 71.7769 28.754C71.7769 28.102 71.8969 27.52 72.1369 27.008C72.3769 26.492 72.7169 26.086 73.1569 25.79C73.6009 25.49 74.1269 25.34 74.7349 25.34C75.3469 25.34 75.8609 25.49 76.2769 25.79C76.6969 26.086 77.0129 26.492 77.2249 27.008C77.4409 27.524 77.5489 28.106 77.5489 28.754C77.5489 29.402 77.4409 29.984 77.2249 30.5C77.0089 31.016 76.6909 31.426 76.2709 31.73C75.8509 32.03 75.3309 32.18 74.7109 32.18ZM74.8849 31.046C75.2969 31.046 75.6329 30.948 75.8929 30.752C76.1529 30.556 76.3429 30.286 76.4629 29.942C76.5829 29.598 76.6429 29.202 76.6429 28.754C76.6429 28.306 76.5809 27.91 76.4569 27.566C76.3369 27.222 76.1489 26.954 75.8929 26.762C75.6409 26.57 75.3189 26.474 74.9269 26.474C74.5109 26.474 74.1689 26.576 73.9009 26.78C73.6329 26.984 73.4329 27.258 73.3009 27.602C73.1729 27.946 73.1089 28.33 73.1089 28.754C73.1089 29.182 73.1729 29.57 73.3009 29.918C73.4329 30.262 73.6289 30.536 73.8889 30.74C74.1529 30.944 74.4849 31.046 74.8849 31.046ZM79.5577 32V23.18H80.8117V32H79.5577ZM85.4874 32.18C84.8434 32.18 84.2774 32.04 83.7894 31.76C83.3054 31.476 82.9274 31.082 82.6554 30.578C82.3874 30.07 82.2534 29.482 82.2534 28.814C82.2534 28.106 82.3854 27.492 82.6494 26.972C82.9174 26.452 83.2894 26.05 83.7654 25.766C84.2414 25.482 84.7954 25.34 85.4274 25.34C86.0874 25.34 86.6494 25.494 87.1134 25.802C87.5774 26.106 87.9234 26.54 88.1514 27.104C88.3834 27.668 88.4754 28.338 88.4274 29.114H87.1734V28.658C87.1654 27.906 87.0214 27.35 86.7414 26.99C86.4654 26.63 86.0434 26.45 85.4754 26.45C84.8474 26.45 84.3754 26.648 84.0594 27.044C83.7434 27.44 83.5854 28.012 83.5854 28.76C83.5854 29.472 83.7434 30.024 84.0594 30.416C84.3754 30.804 84.8314 30.998 85.4274 30.998C85.8194 30.998 86.1574 30.91 86.4414 30.734C86.7294 30.554 86.9534 30.298 87.1134 29.966L88.3434 30.356C88.0914 30.936 87.7094 31.386 87.1974 31.706C86.6854 32.022 86.1154 32.18 85.4874 32.18ZM83.1774 29.114V28.136H87.8034V29.114H83.1774ZM92.1759 32V23.36H95.6679C95.7519 23.36 95.8559 23.364 95.9799 23.372C96.1039 23.376 96.2219 23.388 96.3339 23.408C96.8139 23.484 97.2139 23.648 97.5339 23.9C97.8579 24.152 98.0999 24.47 98.2599 24.854C98.4199 25.238 98.4999 25.662 98.4999 26.126C98.4999 26.594 98.4199 27.02 98.2599 27.404C98.0999 27.788 97.8579 28.106 97.5339 28.358C97.2139 28.61 96.8139 28.774 96.3339 28.85C96.2219 28.866 96.1019 28.878 95.9739 28.886C95.8499 28.894 95.7479 28.898 95.6679 28.898H93.4299V32H92.1759ZM93.4299 27.71H95.6199C95.6999 27.71 95.7879 27.706 95.8839 27.698C95.9839 27.69 96.0779 27.676 96.1659 27.656C96.4219 27.596 96.6279 27.486 96.7839 27.326C96.9399 27.162 97.0519 26.974 97.1199 26.762C97.1879 26.55 97.2219 26.338 97.2219 26.126C97.2219 25.914 97.1879 25.704 97.1199 25.496C97.0519 25.284 96.9399 25.098 96.7839 24.938C96.6279 24.774 96.4219 24.662 96.1659 24.602C96.0779 24.578 95.9839 24.562 95.8839 24.554C95.7879 24.546 95.6999 24.542 95.6199 24.542H93.4299V27.71ZM99.8194 32V23.18H101.073V32H99.8194ZM104.705 32.18C104.225 32.18 103.823 32.092 103.499 31.916C103.175 31.736 102.929 31.5 102.761 31.208C102.597 30.912 102.515 30.588 102.515 30.236C102.515 29.908 102.573 29.62 102.689 29.372C102.805 29.124 102.977 28.914 103.205 28.742C103.433 28.566 103.713 28.424 104.045 28.316C104.333 28.232 104.659 28.158 105.023 28.094C105.387 28.03 105.769 27.97 106.169 27.914C106.573 27.858 106.973 27.802 107.369 27.746L106.913 27.998C106.921 27.49 106.813 27.114 106.589 26.87C106.369 26.622 105.989 26.498 105.449 26.498C105.109 26.498 104.797 26.578 104.513 26.738C104.229 26.894 104.031 27.154 103.919 27.518L102.749 27.158C102.909 26.602 103.213 26.16 103.661 25.832C104.113 25.504 104.713 25.34 105.461 25.34C106.041 25.34 106.545 25.44 106.973 25.64C107.405 25.836 107.721 26.148 107.921 26.576C108.025 26.788 108.089 27.012 108.113 27.248C108.137 27.484 108.149 27.738 108.149 28.01V32H107.039V30.518L107.255 30.71C106.987 31.206 106.645 31.576 106.229 31.82C105.817 32.06 105.309 32.18 104.705 32.18ZM104.927 31.154C105.283 31.154 105.589 31.092 105.845 30.968C106.101 30.84 106.307 30.678 106.463 30.482C106.619 30.286 106.721 30.082 106.769 29.87C106.837 29.678 106.875 29.462 106.883 29.222C106.895 28.982 106.901 28.79 106.901 28.646L107.309 28.796C106.913 28.856 106.553 28.91 106.229 28.958C105.905 29.006 105.611 29.054 105.347 29.102C105.087 29.146 104.855 29.2 104.651 29.264C104.479 29.324 104.325 29.396 104.189 29.48C104.057 29.564 103.951 29.666 103.871 29.786C103.795 29.906 103.757 30.052 103.757 30.224C103.757 30.392 103.799 30.548 103.883 30.692C103.967 30.832 104.095 30.944 104.267 31.028C104.439 31.112 104.659 31.154 104.927 31.154ZM110.22 34.88L111.474 31.466L111.492 32.474L108.666 25.52H109.974L112.086 30.89H111.702L113.718 25.52H114.99L111.414 34.88H110.22Z" fill="white"/>
<defs>
<clipPath id="clip0_25679_8555">
<rect width="24" height="24" fill="white" transform="translate(16 10)"/>
</clipPath>
</defs>
</svg>
