<svg width="308" height="268" viewBox="0 0 308 268" fill="none" xmlns="http://www.w3.org/2000/svg">
<path d="M137.581 3.58748C138.344 3.58748 138.963 2.96863 138.963 2.20524C138.963 1.44185 138.344 0.822998 137.581 0.822998C136.817 0.822998 136.198 1.44185 136.198 2.20524C136.198 2.96863 136.817 3.58748 137.581 3.58748Z" fill="#C5AAFF"/>
<path d="M154.234 3.58748C154.997 3.58748 155.616 2.96863 155.616 2.20524C155.616 1.44185 154.997 0.822998 154.234 0.822998C153.471 0.822998 152.852 1.44185 152.852 2.20524C152.852 2.96863 153.471 3.58748 154.234 3.58748Z" fill="#C5AAFF"/>
<path d="M170.888 3.58748C171.652 3.58748 172.271 2.96863 172.271 2.20524C172.271 1.44185 171.652 0.822998 170.888 0.822998C170.125 0.822998 169.506 1.44185 169.506 2.20524C169.506 2.96863 170.125 3.58748 170.888 3.58748Z" fill="#C5AAFF"/>
<path d="M187.542 3.58748C188.305 3.58748 188.924 2.96863 188.924 2.20524C188.924 1.44185 188.305 0.822998 187.542 0.822998C186.778 0.822998 186.159 1.44185 186.159 2.20524C186.159 2.96863 186.778 3.58748 187.542 3.58748Z" fill="#C5AAFF"/>
<path d="M2.13248 3.58748C2.89587 3.58748 3.51472 2.96863 3.51472 2.20524C3.51472 1.44185 2.89587 0.822998 2.13248 0.822998C1.36909 0.822998 0.750244 1.44185 0.750244 2.20524C0.750244 2.96863 1.36909 3.58748 2.13248 3.58748Z" fill="#C5AAFF"/>
<path d="M206.688 2.20523C206.688 2.47861 206.607 2.74585 206.455 2.97316C206.303 3.20047 206.087 3.37765 205.834 3.48227C205.582 3.58688 205.304 3.61427 205.036 3.56094C204.768 3.5076 204.521 3.37596 204.328 3.18265C204.135 2.98934 204.003 2.74303 203.95 2.4749C203.896 2.20677 203.924 1.92884 204.028 1.67627C204.133 1.4237 204.31 1.20785 204.537 1.05597C204.765 0.904086 205.032 0.822998 205.305 0.822998C205.672 0.822998 206.024 0.968629 206.283 1.22785C206.542 1.48707 206.688 1.83864 206.688 2.20523Z" fill="#C5AAFF"/>
<path d="M20.168 2.20523C20.168 2.47861 20.087 2.74585 19.9351 2.97316C19.7832 3.20047 19.5673 3.37765 19.3148 3.48227C19.0622 3.58688 18.7843 3.61427 18.5161 3.56094C18.248 3.5076 18.0017 3.37596 17.8084 3.18265C17.6151 2.98934 17.4835 2.74303 17.4301 2.4749C17.3768 2.20677 17.4042 1.92884 17.5088 1.67627C17.6134 1.4237 17.7906 1.20785 18.0179 1.05597C18.2452 0.904086 18.5124 0.822998 18.7858 0.822998C19.1524 0.822998 19.504 0.968629 19.7632 1.22785C20.0224 1.48707 20.168 1.83864 20.168 2.20523Z" fill="#C5AAFF"/>
<path d="M221.959 3.58748C222.722 3.58748 223.341 2.96863 223.341 2.20524C223.341 1.44185 222.722 0.822998 221.959 0.822998C221.195 0.822998 220.576 1.44185 220.576 2.20524C220.576 2.96863 221.195 3.58748 221.959 3.58748Z" fill="#C5AAFF"/>
<path d="M35.4391 3.58748C36.2025 3.58748 36.8214 2.96863 36.8214 2.20524C36.8214 1.44185 36.2025 0.822998 35.4391 0.822998C34.6757 0.822998 34.0569 1.44185 34.0569 2.20524C34.0569 2.96863 34.6757 3.58748 35.4391 3.58748Z" fill="#C5AAFF"/>
<path d="M238.612 3.58748C239.375 3.58748 239.994 2.96863 239.994 2.20524C239.994 1.44185 239.375 0.822998 238.612 0.822998C237.849 0.822998 237.23 1.44185 237.23 2.20524C237.23 2.96863 237.849 3.58748 238.612 3.58748Z" fill="#C5AAFF"/>
<path d="M53.2028 3.58748C53.9662 3.58748 54.585 2.96863 54.585 2.20524C54.585 1.44185 53.9662 0.822998 53.2028 0.822998C52.4394 0.822998 51.8206 1.44185 51.8206 2.20524C51.8206 2.96863 52.4394 3.58748 53.2028 3.58748Z" fill="#C5AAFF"/>
<path d="M255.265 3.58748C256.029 3.58748 256.648 2.96863 256.648 2.20524C256.648 1.44185 256.029 0.822998 255.265 0.822998C254.502 0.822998 253.883 1.44185 253.883 2.20524C253.883 2.96863 254.502 3.58748 255.265 3.58748Z" fill="#C5AAFF"/>
<path d="M69.8571 3.58748C70.6205 3.58748 71.2393 2.96863 71.2393 2.20524C71.2393 1.44185 70.6205 0.822998 69.8571 0.822998C69.0937 0.822998 68.4749 1.44185 68.4749 2.20524C68.4749 2.96863 69.0937 3.58748 69.8571 3.58748Z" fill="#C5AAFF"/>
<path d="M273.029 3.58748C273.792 3.58748 274.411 2.96863 274.411 2.20524C274.411 1.44185 273.792 0.822998 273.029 0.822998C272.266 0.822998 271.647 1.44185 271.647 2.20524C271.647 2.96863 272.266 3.58748 273.029 3.58748Z" fill="#C5AAFF"/>
<path d="M86.5104 3.58748C87.2738 3.58748 87.8927 2.96863 87.8927 2.20524C87.8927 1.44185 87.2738 0.822998 86.5104 0.822998C85.747 0.822998 85.1282 1.44185 85.1282 2.20524C85.1282 2.96863 85.747 3.58748 86.5104 3.58748Z" fill="#C5AAFF"/>
<path d="M289.683 3.58748C290.447 3.58748 291.066 2.96863 291.066 2.20524C291.066 1.44185 290.447 0.822998 289.683 0.822998C288.92 0.822998 288.301 1.44185 288.301 2.20524C288.301 2.96863 288.92 3.58748 289.683 3.58748Z" fill="#C5AAFF"/>
<path d="M103.164 3.58748C103.927 3.58748 104.546 2.96863 104.546 2.20524C104.546 1.44185 103.927 0.822998 103.164 0.822998C102.4 0.822998 101.781 1.44185 101.781 2.20524C101.781 2.96863 102.4 3.58748 103.164 3.58748Z" fill="#C5AAFF"/>
<path d="M306.337 3.58748C307.1 3.58748 307.719 2.96863 307.719 2.20524C307.719 1.44185 307.1 0.822998 306.337 0.822998C305.573 0.822998 304.954 1.44185 304.954 2.20524C304.954 2.96863 305.573 3.58748 306.337 3.58748Z" fill="#C5AAFF"/>
<path d="M120.927 3.58748C121.691 3.58748 122.31 2.96863 122.31 2.20524C122.31 1.44185 121.691 0.822998 120.927 0.822998C120.164 0.822998 119.545 1.44185 119.545 2.20524C119.545 2.96863 120.164 3.58748 120.927 3.58748Z" fill="#C5AAFF"/>
<path d="M137.581 22.4625C138.344 22.4625 138.963 21.8436 138.963 21.0802C138.963 20.3168 138.344 19.698 137.581 19.698C136.817 19.698 136.198 20.3168 136.198 21.0802C136.198 21.8436 136.817 22.4625 137.581 22.4625Z" fill="#C5AAFF"/>
<path d="M154.234 22.4625C154.997 22.4625 155.616 21.8436 155.616 21.0802C155.616 20.3168 154.997 19.698 154.234 19.698C153.471 19.698 152.852 20.3168 152.852 21.0802C152.852 21.8436 153.471 22.4625 154.234 22.4625Z" fill="#C5AAFF"/>
<path d="M170.888 22.4625C171.652 22.4625 172.271 21.8436 172.271 21.0802C172.271 20.3168 171.652 19.698 170.888 19.698C170.125 19.698 169.506 20.3168 169.506 21.0802C169.506 21.8436 170.125 22.4625 170.888 22.4625Z" fill="#C5AAFF"/>
<path d="M187.542 22.4625C188.305 22.4625 188.924 21.8436 188.924 21.0802C188.924 20.3168 188.305 19.698 187.542 19.698C186.778 19.698 186.159 20.3168 186.159 21.0802C186.159 21.8436 186.778 22.4625 187.542 22.4625Z" fill="#C5AAFF"/>
<path d="M2.13248 22.4625C2.89587 22.4625 3.51472 21.8436 3.51472 21.0802C3.51472 20.3168 2.89587 19.698 2.13248 19.698C1.36909 19.698 0.750244 20.3168 0.750244 21.0802C0.750244 21.8436 1.36909 22.4625 2.13248 22.4625Z" fill="#C5AAFF"/>
<path d="M206.688 21.0802C206.688 21.3536 206.607 21.6209 206.455 21.8482C206.303 22.0755 206.087 22.2526 205.834 22.3573C205.582 22.4619 205.304 22.4893 205.036 22.4359C204.768 22.3826 204.521 22.251 204.328 22.0577C204.135 21.8643 204.003 21.618 203.95 21.3499C203.896 21.0818 203.924 20.8038 204.028 20.5513C204.133 20.2987 204.31 20.0829 204.537 19.931C204.765 19.7791 205.032 19.698 205.305 19.698C205.672 19.698 206.024 19.8436 206.283 20.1028C206.542 20.3621 206.688 20.7136 206.688 21.0802Z" fill="#C5AAFF"/>
<path d="M20.168 21.0802C20.168 21.3536 20.087 21.6209 19.9351 21.8482C19.7832 22.0755 19.5673 22.2526 19.3148 22.3573C19.0622 22.4619 18.7843 22.4893 18.5161 22.4359C18.248 22.3826 18.0017 22.251 17.8084 22.0577C17.6151 21.8643 17.4835 21.618 17.4301 21.3499C17.3768 21.0818 17.4042 20.8038 17.5088 20.5513C17.6134 20.2987 17.7906 20.0829 18.0179 19.931C18.2452 19.7791 18.5124 19.698 18.7858 19.698C19.1524 19.698 19.504 19.8436 19.7632 20.1028C20.0224 20.3621 20.168 20.7136 20.168 21.0802Z" fill="#C5AAFF"/>
<path d="M221.959 22.4625C222.722 22.4625 223.341 21.8436 223.341 21.0802C223.341 20.3168 222.722 19.698 221.959 19.698C221.195 19.698 220.576 20.3168 220.576 21.0802C220.576 21.8436 221.195 22.4625 221.959 22.4625Z" fill="#C5AAFF"/>
<path d="M35.4391 22.4625C36.2025 22.4625 36.8214 21.8436 36.8214 21.0802C36.8214 20.3168 36.2025 19.698 35.4391 19.698C34.6757 19.698 34.0569 20.3168 34.0569 21.0802C34.0569 21.8436 34.6757 22.4625 35.4391 22.4625Z" fill="#C5AAFF"/>
<path d="M238.612 22.4625C239.375 22.4625 239.994 21.8436 239.994 21.0802C239.994 20.3168 239.375 19.698 238.612 19.698C237.849 19.698 237.23 20.3168 237.23 21.0802C237.23 21.8436 237.849 22.4625 238.612 22.4625Z" fill="#C5AAFF"/>
<path d="M53.2028 22.4625C53.9662 22.4625 54.585 21.8436 54.585 21.0802C54.585 20.3168 53.9662 19.698 53.2028 19.698C52.4394 19.698 51.8206 20.3168 51.8206 21.0802C51.8206 21.8436 52.4394 22.4625 53.2028 22.4625Z" fill="#C5AAFF"/>
<path d="M255.265 22.4625C256.029 22.4625 256.648 21.8436 256.648 21.0802C256.648 20.3168 256.029 19.698 255.265 19.698C254.502 19.698 253.883 20.3168 253.883 21.0802C253.883 21.8436 254.502 22.4625 255.265 22.4625Z" fill="#C5AAFF"/>
<path d="M69.8571 22.4625C70.6205 22.4625 71.2393 21.8436 71.2393 21.0802C71.2393 20.3168 70.6205 19.698 69.8571 19.698C69.0937 19.698 68.4749 20.3168 68.4749 21.0802C68.4749 21.8436 69.0937 22.4625 69.8571 22.4625Z" fill="#C5AAFF"/>
<path d="M273.029 22.4625C273.792 22.4625 274.411 21.8436 274.411 21.0802C274.411 20.3168 273.792 19.698 273.029 19.698C272.266 19.698 271.647 20.3168 271.647 21.0802C271.647 21.8436 272.266 22.4625 273.029 22.4625Z" fill="#C5AAFF"/>
<path d="M86.5104 22.4625C87.2738 22.4625 87.8927 21.8436 87.8927 21.0802C87.8927 20.3168 87.2738 19.698 86.5104 19.698C85.747 19.698 85.1282 20.3168 85.1282 21.0802C85.1282 21.8436 85.747 22.4625 86.5104 22.4625Z" fill="#C5AAFF"/>
<path d="M289.683 22.4625C290.447 22.4625 291.066 21.8436 291.066 21.0802C291.066 20.3168 290.447 19.698 289.683 19.698C288.92 19.698 288.301 20.3168 288.301 21.0802C288.301 21.8436 288.92 22.4625 289.683 22.4625Z" fill="#C5AAFF"/>
<path d="M103.164 22.4625C103.927 22.4625 104.546 21.8436 104.546 21.0802C104.546 20.3168 103.927 19.698 103.164 19.698C102.4 19.698 101.781 20.3168 101.781 21.0802C101.781 21.8436 102.4 22.4625 103.164 22.4625Z" fill="#C5AAFF"/>
<path d="M306.337 22.4625C307.1 22.4625 307.719 21.8436 307.719 21.0802C307.719 20.3168 307.1 19.698 306.337 19.698C305.573 19.698 304.954 20.3168 304.954 21.0802C304.954 21.8436 305.573 22.4625 306.337 22.4625Z" fill="#C5AAFF"/>
<path d="M120.927 22.4625C121.691 22.4625 122.31 21.8436 122.31 21.0802C122.31 20.3168 121.691 19.698 120.927 19.698C120.164 19.698 119.545 20.3168 119.545 21.0802C119.545 21.8436 120.164 22.4625 120.927 22.4625Z" fill="#C5AAFF"/>
<path d="M137.581 41.3336C138.344 41.3336 138.963 40.7147 138.963 39.9513C138.963 39.1879 138.344 38.5691 137.581 38.5691C136.817 38.5691 136.198 39.1879 136.198 39.9513C136.198 40.7147 136.817 41.3336 137.581 41.3336Z" fill="#C5AAFF"/>
<path d="M154.234 41.3336C154.997 41.3336 155.616 40.7147 155.616 39.9513C155.616 39.1879 154.997 38.5691 154.234 38.5691C153.471 38.5691 152.852 39.1879 152.852 39.9513C152.852 40.7147 153.471 41.3336 154.234 41.3336Z" fill="#C5AAFF"/>
<path d="M170.888 41.3336C171.652 41.3336 172.271 40.7147 172.271 39.9513C172.271 39.1879 171.652 38.5691 170.888 38.5691C170.125 38.5691 169.506 39.1879 169.506 39.9513C169.506 40.7147 170.125 41.3336 170.888 41.3336Z" fill="#C5AAFF"/>
<path d="M187.542 41.3336C188.305 41.3336 188.924 40.7147 188.924 39.9513C188.924 39.1879 188.305 38.5691 187.542 38.5691C186.778 38.5691 186.159 39.1879 186.159 39.9513C186.159 40.7147 186.778 41.3336 187.542 41.3336Z" fill="#C5AAFF"/>
<path d="M2.13248 41.3336C2.89587 41.3336 3.51472 40.7147 3.51472 39.9513C3.51472 39.1879 2.89587 38.5691 2.13248 38.5691C1.36909 38.5691 0.750244 39.1879 0.750244 39.9513C0.750244 40.7147 1.36909 41.3336 2.13248 41.3336Z" fill="#C5AAFF"/>
<path d="M206.688 39.9513C206.688 40.2247 206.607 40.4919 206.455 40.7193C206.303 40.9466 206.087 41.1237 205.834 41.2284C205.582 41.333 205.304 41.3604 205.036 41.307C204.768 41.2537 204.521 41.1221 204.328 40.9287C204.135 40.7354 204.003 40.4891 203.95 40.221C203.896 39.9529 203.924 39.6749 204.028 39.4224C204.133 39.1698 204.31 38.9539 204.537 38.8021C204.765 38.6502 205.032 38.5691 205.305 38.5691C205.672 38.5691 206.024 38.7147 206.283 38.9739C206.542 39.2332 206.688 39.5847 206.688 39.9513Z" fill="#C5AAFF"/>
<path d="M20.168 39.9513C20.168 40.2247 20.087 40.4919 19.9351 40.7193C19.7832 40.9466 19.5673 41.1237 19.3148 41.2284C19.0622 41.333 18.7843 41.3604 18.5161 41.307C18.248 41.2537 18.0017 41.1221 17.8084 40.9287C17.6151 40.7354 17.4835 40.4891 17.4301 40.221C17.3768 39.9529 17.4042 39.6749 17.5088 39.4224C17.6134 39.1698 17.7906 38.9539 18.0179 38.8021C18.2452 38.6502 18.5124 38.5691 18.7858 38.5691C19.1524 38.5691 19.504 38.7147 19.7632 38.9739C20.0224 39.2332 20.168 39.5847 20.168 39.9513Z" fill="#C5AAFF"/>
<path d="M221.959 41.3336C222.722 41.3336 223.341 40.7147 223.341 39.9513C223.341 39.1879 222.722 38.5691 221.959 38.5691C221.195 38.5691 220.576 39.1879 220.576 39.9513C220.576 40.7147 221.195 41.3336 221.959 41.3336Z" fill="#C5AAFF"/>
<path d="M35.4391 41.3336C36.2025 41.3336 36.8214 40.7147 36.8214 39.9513C36.8214 39.1879 36.2025 38.5691 35.4391 38.5691C34.6757 38.5691 34.0569 39.1879 34.0569 39.9513C34.0569 40.7147 34.6757 41.3336 35.4391 41.3336Z" fill="#C5AAFF"/>
<path d="M238.612 41.3336C239.375 41.3336 239.994 40.7147 239.994 39.9513C239.994 39.1879 239.375 38.5691 238.612 38.5691C237.849 38.5691 237.23 39.1879 237.23 39.9513C237.23 40.7147 237.849 41.3336 238.612 41.3336Z" fill="#C5AAFF"/>
<path d="M53.2028 41.3336C53.9662 41.3336 54.585 40.7147 54.585 39.9513C54.585 39.1879 53.9662 38.5691 53.2028 38.5691C52.4394 38.5691 51.8206 39.1879 51.8206 39.9513C51.8206 40.7147 52.4394 41.3336 53.2028 41.3336Z" fill="#C5AAFF"/>
<path d="M255.265 41.3336C256.029 41.3336 256.648 40.7147 256.648 39.9513C256.648 39.1879 256.029 38.5691 255.265 38.5691C254.502 38.5691 253.883 39.1879 253.883 39.9513C253.883 40.7147 254.502 41.3336 255.265 41.3336Z" fill="#C5AAFF"/>
<path d="M69.8571 41.3336C70.6205 41.3336 71.2393 40.7147 71.2393 39.9513C71.2393 39.1879 70.6205 38.5691 69.8571 38.5691C69.0937 38.5691 68.4749 39.1879 68.4749 39.9513C68.4749 40.7147 69.0937 41.3336 69.8571 41.3336Z" fill="#C5AAFF"/>
<path d="M273.029 41.3336C273.792 41.3336 274.411 40.7147 274.411 39.9513C274.411 39.1879 273.792 38.5691 273.029 38.5691C272.266 38.5691 271.647 39.1879 271.647 39.9513C271.647 40.7147 272.266 41.3336 273.029 41.3336Z" fill="#C5AAFF"/>
<path d="M86.5104 41.3336C87.2738 41.3336 87.8927 40.7147 87.8927 39.9513C87.8927 39.1879 87.2738 38.5691 86.5104 38.5691C85.747 38.5691 85.1282 39.1879 85.1282 39.9513C85.1282 40.7147 85.747 41.3336 86.5104 41.3336Z" fill="#C5AAFF"/>
<path d="M289.683 41.3336C290.447 41.3336 291.066 40.7147 291.066 39.9513C291.066 39.1879 290.447 38.5691 289.683 38.5691C288.92 38.5691 288.301 39.1879 288.301 39.9513C288.301 40.7147 288.92 41.3336 289.683 41.3336Z" fill="#C5AAFF"/>
<path d="M103.164 41.3336C103.927 41.3336 104.546 40.7147 104.546 39.9513C104.546 39.1879 103.927 38.5691 103.164 38.5691C102.4 38.5691 101.781 39.1879 101.781 39.9513C101.781 40.7147 102.4 41.3336 103.164 41.3336Z" fill="#C5AAFF"/>
<path d="M306.337 41.3336C307.1 41.3336 307.719 40.7147 307.719 39.9513C307.719 39.1879 307.1 38.5691 306.337 38.5691C305.573 38.5691 304.954 39.1879 304.954 39.9513C304.954 40.7147 305.573 41.3336 306.337 41.3336Z" fill="#C5AAFF"/>
<path d="M120.927 41.3336C121.691 41.3336 122.31 40.7147 122.31 39.9513C122.31 39.1879 121.691 38.5691 120.927 38.5691C120.164 38.5691 119.545 39.1879 119.545 39.9513C119.545 40.7147 120.164 41.3336 120.927 41.3336Z" fill="#C5AAFF"/>
<path d="M137.581 60.2086C138.344 60.2086 138.963 59.5897 138.963 58.8263C138.963 58.0629 138.344 57.4441 137.581 57.4441C136.817 57.4441 136.198 58.0629 136.198 58.8263C136.198 59.5897 136.817 60.2086 137.581 60.2086Z" fill="#C5AAFF"/>
<path d="M154.234 60.2086C154.997 60.2086 155.616 59.5897 155.616 58.8263C155.616 58.0629 154.997 57.4441 154.234 57.4441C153.471 57.4441 152.852 58.0629 152.852 58.8263C152.852 59.5897 153.471 60.2086 154.234 60.2086Z" fill="#C5AAFF"/>
<path d="M170.888 60.2086C171.652 60.2086 172.271 59.5897 172.271 58.8263C172.271 58.0629 171.652 57.4441 170.888 57.4441C170.125 57.4441 169.506 58.0629 169.506 58.8263C169.506 59.5897 170.125 60.2086 170.888 60.2086Z" fill="#C5AAFF"/>
<path d="M187.542 60.2086C188.305 60.2086 188.924 59.5897 188.924 58.8263C188.924 58.0629 188.305 57.4441 187.542 57.4441C186.778 57.4441 186.159 58.0629 186.159 58.8263C186.159 59.5897 186.778 60.2086 187.542 60.2086Z" fill="#C5AAFF"/>
<path d="M2.13248 60.2086C2.89587 60.2086 3.51472 59.5897 3.51472 58.8263C3.51472 58.0629 2.89587 57.4441 2.13248 57.4441C1.36909 57.4441 0.750244 58.0629 0.750244 58.8263C0.750244 59.5897 1.36909 60.2086 2.13248 60.2086Z" fill="#C5AAFF"/>
<path d="M206.688 58.8263C206.688 59.0997 206.607 59.3669 206.455 59.5943C206.303 59.8216 206.087 59.9987 205.834 60.1034C205.582 60.208 205.304 60.2354 205.036 60.182C204.768 60.1287 204.521 59.9971 204.328 59.8037C204.135 59.6104 204.003 59.3641 203.95 59.096C203.896 58.8279 203.924 58.5499 204.028 58.2974C204.133 58.0448 204.31 57.8289 204.537 57.6771C204.765 57.5252 205.032 57.4441 205.305 57.4441C205.672 57.4441 206.024 57.5897 206.283 57.8489C206.542 58.1082 206.688 58.4597 206.688 58.8263Z" fill="#C5AAFF"/>
<path d="M20.168 58.8263C20.168 59.0997 20.087 59.3669 19.9351 59.5943C19.7832 59.8216 19.5673 59.9987 19.3148 60.1034C19.0622 60.208 18.7843 60.2354 18.5161 60.182C18.248 60.1287 18.0017 59.9971 17.8084 59.8037C17.6151 59.6104 17.4835 59.3641 17.4301 59.096C17.3768 58.8279 17.4042 58.5499 17.5088 58.2974C17.6134 58.0448 17.7906 57.8289 18.0179 57.6771C18.2452 57.5252 18.5124 57.4441 18.7858 57.4441C19.1524 57.4441 19.504 57.5897 19.7632 57.8489C20.0224 58.1082 20.168 58.4597 20.168 58.8263Z" fill="#C5AAFF"/>
<path d="M221.959 60.2086C222.722 60.2086 223.341 59.5897 223.341 58.8263C223.341 58.0629 222.722 57.4441 221.959 57.4441C221.195 57.4441 220.576 58.0629 220.576 58.8263C220.576 59.5897 221.195 60.2086 221.959 60.2086Z" fill="#C5AAFF"/>
<path d="M35.4391 60.2086C36.2025 60.2086 36.8214 59.5897 36.8214 58.8263C36.8214 58.0629 36.2025 57.4441 35.4391 57.4441C34.6757 57.4441 34.0569 58.0629 34.0569 58.8263C34.0569 59.5897 34.6757 60.2086 35.4391 60.2086Z" fill="#C5AAFF"/>
<path d="M238.612 60.2086C239.375 60.2086 239.994 59.5897 239.994 58.8263C239.994 58.0629 239.375 57.4441 238.612 57.4441C237.849 57.4441 237.23 58.0629 237.23 58.8263C237.23 59.5897 237.849 60.2086 238.612 60.2086Z" fill="#C5AAFF"/>
<path d="M53.2028 60.2086C53.9662 60.2086 54.585 59.5897 54.585 58.8263C54.585 58.0629 53.9662 57.4441 53.2028 57.4441C52.4394 57.4441 51.8206 58.0629 51.8206 58.8263C51.8206 59.5897 52.4394 60.2086 53.2028 60.2086Z" fill="#C5AAFF"/>
<path d="M255.265 60.2086C256.029 60.2086 256.648 59.5897 256.648 58.8263C256.648 58.0629 256.029 57.4441 255.265 57.4441C254.502 57.4441 253.883 58.0629 253.883 58.8263C253.883 59.5897 254.502 60.2086 255.265 60.2086Z" fill="#C5AAFF"/>
<path d="M69.8571 60.2086C70.6205 60.2086 71.2393 59.5897 71.2393 58.8263C71.2393 58.0629 70.6205 57.4441 69.8571 57.4441C69.0937 57.4441 68.4749 58.0629 68.4749 58.8263C68.4749 59.5897 69.0937 60.2086 69.8571 60.2086Z" fill="#C5AAFF"/>
<path d="M273.029 60.2086C273.792 60.2086 274.411 59.5897 274.411 58.8263C274.411 58.0629 273.792 57.4441 273.029 57.4441C272.266 57.4441 271.647 58.0629 271.647 58.8263C271.647 59.5897 272.266 60.2086 273.029 60.2086Z" fill="#C5AAFF"/>
<path d="M86.5104 60.2086C87.2738 60.2086 87.8927 59.5897 87.8927 58.8263C87.8927 58.0629 87.2738 57.4441 86.5104 57.4441C85.747 57.4441 85.1282 58.0629 85.1282 58.8263C85.1282 59.5897 85.747 60.2086 86.5104 60.2086Z" fill="#C5AAFF"/>
<path d="M289.683 60.2086C290.447 60.2086 291.066 59.5897 291.066 58.8263C291.066 58.0629 290.447 57.4441 289.683 57.4441C288.92 57.4441 288.301 58.0629 288.301 58.8263C288.301 59.5897 288.92 60.2086 289.683 60.2086Z" fill="#C5AAFF"/>
<path d="M103.164 60.2086C103.927 60.2086 104.546 59.5897 104.546 58.8263C104.546 58.0629 103.927 57.4441 103.164 57.4441C102.4 57.4441 101.781 58.0629 101.781 58.8263C101.781 59.5897 102.4 60.2086 103.164 60.2086Z" fill="#C5AAFF"/>
<path d="M306.337 60.2086C307.1 60.2086 307.719 59.5897 307.719 58.8263C307.719 58.0629 307.1 57.4441 306.337 57.4441C305.573 57.4441 304.954 58.0629 304.954 58.8263C304.954 59.5897 305.573 60.2086 306.337 60.2086Z" fill="#C5AAFF"/>
<path d="M120.927 60.2086C121.691 60.2086 122.31 59.5897 122.31 58.8263C122.31 58.0629 121.691 57.4441 120.927 57.4441C120.164 57.4441 119.545 58.0629 119.545 58.8263C119.545 59.5897 120.164 60.2086 120.927 60.2086Z" fill="#C5AAFF"/>
<path d="M137.581 79.0836C138.344 79.0836 138.963 78.4647 138.963 77.7013C138.963 76.9379 138.344 76.3191 137.581 76.3191C136.817 76.3191 136.198 76.9379 136.198 77.7013C136.198 78.4647 136.817 79.0836 137.581 79.0836Z" fill="#C5AAFF"/>
<path d="M154.234 79.0836C154.997 79.0836 155.616 78.4647 155.616 77.7013C155.616 76.9379 154.997 76.3191 154.234 76.3191C153.471 76.3191 152.852 76.9379 152.852 77.7013C152.852 78.4647 153.471 79.0836 154.234 79.0836Z" fill="#C5AAFF"/>
<path d="M170.888 79.0836C171.652 79.0836 172.271 78.4647 172.271 77.7013C172.271 76.9379 171.652 76.3191 170.888 76.3191C170.125 76.3191 169.506 76.9379 169.506 77.7013C169.506 78.4647 170.125 79.0836 170.888 79.0836Z" fill="#C5AAFF"/>
<path d="M187.542 79.0836C188.305 79.0836 188.924 78.4647 188.924 77.7013C188.924 76.9379 188.305 76.3191 187.542 76.3191C186.778 76.3191 186.159 76.9379 186.159 77.7013C186.159 78.4647 186.778 79.0836 187.542 79.0836Z" fill="#C5AAFF"/>
<path d="M2.13248 79.0836C2.89587 79.0836 3.51472 78.4647 3.51472 77.7013C3.51472 76.9379 2.89587 76.3191 2.13248 76.3191C1.36909 76.3191 0.750244 76.9379 0.750244 77.7013C0.750244 78.4647 1.36909 79.0836 2.13248 79.0836Z" fill="#C5AAFF"/>
<path d="M206.688 77.7013C206.688 77.9747 206.607 78.2419 206.455 78.4693C206.303 78.6966 206.087 78.8737 205.834 78.9784C205.582 79.083 205.304 79.1104 205.036 79.057C204.768 79.0037 204.521 78.8721 204.328 78.6787C204.135 78.4854 204.003 78.2391 203.95 77.971C203.896 77.7029 203.924 77.4249 204.028 77.1724C204.133 76.9198 204.31 76.7039 204.537 76.5521C204.765 76.4002 205.032 76.3191 205.305 76.3191C205.672 76.3191 206.024 76.4647 206.283 76.7239C206.542 76.9832 206.688 77.3347 206.688 77.7013Z" fill="#C5AAFF"/>
<path d="M20.168 77.7013C20.168 77.9747 20.087 78.2419 19.9351 78.4693C19.7832 78.6966 19.5673 78.8737 19.3148 78.9784C19.0622 79.083 18.7843 79.1104 18.5161 79.057C18.248 79.0037 18.0017 78.8721 17.8084 78.6787C17.6151 78.4854 17.4835 78.2391 17.4301 77.971C17.3768 77.7029 17.4042 77.4249 17.5088 77.1724C17.6134 76.9198 17.7906 76.7039 18.0179 76.5521C18.2452 76.4002 18.5124 76.3191 18.7858 76.3191C19.1524 76.3191 19.504 76.4647 19.7632 76.7239C20.0224 76.9832 20.168 77.3347 20.168 77.7013Z" fill="#C5AAFF"/>
<path d="M221.959 79.0836C222.722 79.0836 223.341 78.4647 223.341 77.7013C223.341 76.9379 222.722 76.3191 221.959 76.3191C221.195 76.3191 220.576 76.9379 220.576 77.7013C220.576 78.4647 221.195 79.0836 221.959 79.0836Z" fill="#C5AAFF"/>
<path d="M35.4391 79.0836C36.2025 79.0836 36.8214 78.4647 36.8214 77.7013C36.8214 76.9379 36.2025 76.3191 35.4391 76.3191C34.6757 76.3191 34.0569 76.9379 34.0569 77.7013C34.0569 78.4647 34.6757 79.0836 35.4391 79.0836Z" fill="#C5AAFF"/>
<path d="M238.612 79.0836C239.375 79.0836 239.994 78.4647 239.994 77.7013C239.994 76.9379 239.375 76.3191 238.612 76.3191C237.849 76.3191 237.23 76.9379 237.23 77.7013C237.23 78.4647 237.849 79.0836 238.612 79.0836Z" fill="#C5AAFF"/>
<path d="M53.2028 79.0836C53.9662 79.0836 54.585 78.4647 54.585 77.7013C54.585 76.9379 53.9662 76.3191 53.2028 76.3191C52.4394 76.3191 51.8206 76.9379 51.8206 77.7013C51.8206 78.4647 52.4394 79.0836 53.2028 79.0836Z" fill="#C5AAFF"/>
<path d="M255.265 79.0836C256.029 79.0836 256.648 78.4647 256.648 77.7013C256.648 76.9379 256.029 76.3191 255.265 76.3191C254.502 76.3191 253.883 76.9379 253.883 77.7013C253.883 78.4647 254.502 79.0836 255.265 79.0836Z" fill="#C5AAFF"/>
<path d="M69.8571 79.0836C70.6205 79.0836 71.2393 78.4647 71.2393 77.7013C71.2393 76.9379 70.6205 76.3191 69.8571 76.3191C69.0937 76.3191 68.4749 76.9379 68.4749 77.7013C68.4749 78.4647 69.0937 79.0836 69.8571 79.0836Z" fill="#C5AAFF"/>
<path d="M273.029 79.0836C273.792 79.0836 274.411 78.4647 274.411 77.7013C274.411 76.9379 273.792 76.3191 273.029 76.3191C272.266 76.3191 271.647 76.9379 271.647 77.7013C271.647 78.4647 272.266 79.0836 273.029 79.0836Z" fill="#C5AAFF"/>
<path d="M86.5104 79.0836C87.2738 79.0836 87.8927 78.4647 87.8927 77.7013C87.8927 76.9379 87.2738 76.3191 86.5104 76.3191C85.747 76.3191 85.1282 76.9379 85.1282 77.7013C85.1282 78.4647 85.747 79.0836 86.5104 79.0836Z" fill="#C5AAFF"/>
<path d="M289.683 79.0836C290.447 79.0836 291.066 78.4647 291.066 77.7013C291.066 76.9379 290.447 76.3191 289.683 76.3191C288.92 76.3191 288.301 76.9379 288.301 77.7013C288.301 78.4647 288.92 79.0836 289.683 79.0836Z" fill="#C5AAFF"/>
<path d="M103.164 79.0836C103.927 79.0836 104.546 78.4647 104.546 77.7013C104.546 76.9379 103.927 76.3191 103.164 76.3191C102.4 76.3191 101.781 76.9379 101.781 77.7013C101.781 78.4647 102.4 79.0836 103.164 79.0836Z" fill="#C5AAFF"/>
<path d="M306.337 79.0836C307.1 79.0836 307.719 78.4647 307.719 77.7013C307.719 76.9379 307.1 76.3191 306.337 76.3191C305.573 76.3191 304.954 76.9379 304.954 77.7013C304.954 78.4647 305.573 79.0836 306.337 79.0836Z" fill="#C5AAFF"/>
<path d="M120.927 79.0836C121.691 79.0836 122.31 78.4647 122.31 77.7013C122.31 76.9379 121.691 76.3191 120.927 76.3191C120.164 76.3191 119.545 76.9379 119.545 77.7013C119.545 78.4647 120.164 79.0836 120.927 79.0836Z" fill="#C5AAFF"/>
<path d="M137.581 97.9586C138.344 97.9586 138.963 97.3397 138.963 96.5763C138.963 95.8129 138.344 95.1941 137.581 95.1941C136.817 95.1941 136.198 95.8129 136.198 96.5763C136.198 97.3397 136.817 97.9586 137.581 97.9586Z" fill="#C5AAFF"/>
<path d="M154.234 97.9586C154.997 97.9586 155.616 97.3397 155.616 96.5763C155.616 95.8129 154.997 95.1941 154.234 95.1941C153.471 95.1941 152.852 95.8129 152.852 96.5763C152.852 97.3397 153.471 97.9586 154.234 97.9586Z" fill="#C5AAFF"/>
<path d="M170.888 97.9586C171.652 97.9586 172.271 97.3397 172.271 96.5763C172.271 95.8129 171.652 95.1941 170.888 95.1941C170.125 95.1941 169.506 95.8129 169.506 96.5763C169.506 97.3397 170.125 97.9586 170.888 97.9586Z" fill="#C5AAFF"/>
<path d="M187.542 97.9586C188.305 97.9586 188.924 97.3397 188.924 96.5763C188.924 95.8129 188.305 95.1941 187.542 95.1941C186.778 95.1941 186.159 95.8129 186.159 96.5763C186.159 97.3397 186.778 97.9586 187.542 97.9586Z" fill="#C5AAFF"/>
<path d="M2.13248 97.9586C2.89587 97.9586 3.51472 97.3397 3.51472 96.5763C3.51472 95.8129 2.89587 95.1941 2.13248 95.1941C1.36909 95.1941 0.750244 95.8129 0.750244 96.5763C0.750244 97.3397 1.36909 97.9586 2.13248 97.9586Z" fill="#C5AAFF"/>
<path d="M206.688 96.5763C206.688 96.8497 206.607 97.1169 206.455 97.3443C206.303 97.5716 206.087 97.7487 205.834 97.8534C205.582 97.958 205.304 97.9854 205.036 97.932C204.768 97.8787 204.521 97.7471 204.328 97.5537C204.135 97.3604 204.003 97.1141 203.95 96.846C203.896 96.5779 203.924 96.2999 204.028 96.0474C204.133 95.7948 204.31 95.5789 204.537 95.4271C204.765 95.2752 205.032 95.1941 205.305 95.1941C205.672 95.1941 206.024 95.3397 206.283 95.5989C206.542 95.8582 206.688 96.2097 206.688 96.5763Z" fill="#C5AAFF"/>
<path d="M20.168 96.5763C20.168 96.8497 20.087 97.1169 19.9351 97.3443C19.7832 97.5716 19.5673 97.7487 19.3148 97.8534C19.0622 97.958 18.7843 97.9854 18.5161 97.932C18.248 97.8787 18.0017 97.7471 17.8084 97.5537C17.6151 97.3604 17.4835 97.1141 17.4301 96.846C17.3768 96.5779 17.4042 96.2999 17.5088 96.0474C17.6134 95.7948 17.7906 95.5789 18.0179 95.4271C18.2452 95.2752 18.5124 95.1941 18.7858 95.1941C19.1524 95.1941 19.504 95.3397 19.7632 95.5989C20.0224 95.8582 20.168 96.2097 20.168 96.5763Z" fill="#C5AAFF"/>
<path d="M221.959 97.9586C222.722 97.9586 223.341 97.3397 223.341 96.5763C223.341 95.8129 222.722 95.1941 221.959 95.1941C221.195 95.1941 220.576 95.8129 220.576 96.5763C220.576 97.3397 221.195 97.9586 221.959 97.9586Z" fill="#C5AAFF"/>
<path d="M35.4391 97.9586C36.2025 97.9586 36.8214 97.3397 36.8214 96.5763C36.8214 95.8129 36.2025 95.1941 35.4391 95.1941C34.6757 95.1941 34.0569 95.8129 34.0569 96.5763C34.0569 97.3397 34.6757 97.9586 35.4391 97.9586Z" fill="#C5AAFF"/>
<path d="M238.612 97.9586C239.375 97.9586 239.994 97.3397 239.994 96.5763C239.994 95.8129 239.375 95.1941 238.612 95.1941C237.849 95.1941 237.23 95.8129 237.23 96.5763C237.23 97.3397 237.849 97.9586 238.612 97.9586Z" fill="#C5AAFF"/>
<path d="M53.2028 97.9586C53.9662 97.9586 54.585 97.3397 54.585 96.5763C54.585 95.8129 53.9662 95.1941 53.2028 95.1941C52.4394 95.1941 51.8206 95.8129 51.8206 96.5763C51.8206 97.3397 52.4394 97.9586 53.2028 97.9586Z" fill="#C5AAFF"/>
<path d="M255.265 97.9586C256.029 97.9586 256.648 97.3397 256.648 96.5763C256.648 95.8129 256.029 95.1941 255.265 95.1941C254.502 95.1941 253.883 95.8129 253.883 96.5763C253.883 97.3397 254.502 97.9586 255.265 97.9586Z" fill="#C5AAFF"/>
<path d="M69.8571 97.9586C70.6205 97.9586 71.2393 97.3397 71.2393 96.5763C71.2393 95.8129 70.6205 95.1941 69.8571 95.1941C69.0937 95.1941 68.4749 95.8129 68.4749 96.5763C68.4749 97.3397 69.0937 97.9586 69.8571 97.9586Z" fill="#C5AAFF"/>
<path d="M273.029 97.9586C273.792 97.9586 274.411 97.3397 274.411 96.5763C274.411 95.8129 273.792 95.1941 273.029 95.1941C272.266 95.1941 271.647 95.8129 271.647 96.5763C271.647 97.3397 272.266 97.9586 273.029 97.9586Z" fill="#C5AAFF"/>
<path d="M86.5104 97.9586C87.2738 97.9586 87.8927 97.3397 87.8927 96.5763C87.8927 95.8129 87.2738 95.1941 86.5104 95.1941C85.747 95.1941 85.1282 95.8129 85.1282 96.5763C85.1282 97.3397 85.747 97.9586 86.5104 97.9586Z" fill="#C5AAFF"/>
<path d="M289.683 97.9586C290.447 97.9586 291.066 97.3397 291.066 96.5763C291.066 95.8129 290.447 95.1941 289.683 95.1941C288.92 95.1941 288.301 95.8129 288.301 96.5763C288.301 97.3397 288.92 97.9586 289.683 97.9586Z" fill="#C5AAFF"/>
<path d="M103.164 97.9586C103.927 97.9586 104.546 97.3397 104.546 96.5763C104.546 95.8129 103.927 95.1941 103.164 95.1941C102.4 95.1941 101.781 95.8129 101.781 96.5763C101.781 97.3397 102.4 97.9586 103.164 97.9586Z" fill="#C5AAFF"/>
<path d="M306.337 97.9586C307.1 97.9586 307.719 97.3397 307.719 96.5763C307.719 95.8129 307.1 95.1941 306.337 95.1941C305.573 95.1941 304.954 95.8129 304.954 96.5763C304.954 97.3397 305.573 97.9586 306.337 97.9586Z" fill="#C5AAFF"/>
<path d="M120.927 97.9586C121.691 97.9586 122.31 97.3397 122.31 96.5763C122.31 95.8129 121.691 95.1941 120.927 95.1941C120.164 95.1941 119.545 95.8129 119.545 96.5763C119.545 97.3397 120.164 97.9586 120.927 97.9586Z" fill="#C5AAFF"/>
<path d="M137.581 116.83C138.344 116.83 138.963 116.211 138.963 115.447C138.963 114.684 138.344 114.065 137.581 114.065C136.817 114.065 136.198 114.684 136.198 115.447C136.198 116.211 136.817 116.83 137.581 116.83Z" fill="#C5AAFF"/>
<path d="M154.234 116.83C154.997 116.83 155.616 116.211 155.616 115.447C155.616 114.684 154.997 114.065 154.234 114.065C153.471 114.065 152.852 114.684 152.852 115.447C152.852 116.211 153.471 116.83 154.234 116.83Z" fill="#C5AAFF"/>
<path d="M170.888 116.83C171.652 116.83 172.271 116.211 172.271 115.447C172.271 114.684 171.652 114.065 170.888 114.065C170.125 114.065 169.506 114.684 169.506 115.447C169.506 116.211 170.125 116.83 170.888 116.83Z" fill="#C5AAFF"/>
<path d="M187.542 116.83C188.305 116.83 188.924 116.211 188.924 115.447C188.924 114.684 188.305 114.065 187.542 114.065C186.778 114.065 186.159 114.684 186.159 115.447C186.159 116.211 186.778 116.83 187.542 116.83Z" fill="#C5AAFF"/>
<path d="M2.13248 116.83C2.89587 116.83 3.51472 116.211 3.51472 115.447C3.51472 114.684 2.89587 114.065 2.13248 114.065C1.36909 114.065 0.750244 114.684 0.750244 115.447C0.750244 116.211 1.36909 116.83 2.13248 116.83Z" fill="#C5AAFF"/>
<path d="M206.688 115.447C206.688 115.721 206.607 115.988 206.455 116.215C206.303 116.443 206.087 116.62 205.834 116.724C205.582 116.829 205.304 116.856 205.036 116.803C204.768 116.75 204.521 116.618 204.328 116.425C204.135 116.232 204.003 115.985 203.95 115.717C203.896 115.449 203.924 115.171 204.028 114.918C204.133 114.666 204.31 114.45 204.537 114.298C204.765 114.146 205.032 114.065 205.305 114.065C205.672 114.065 206.024 114.211 206.283 114.47C206.542 114.729 206.688 115.081 206.688 115.447Z" fill="#C5AAFF"/>
<path d="M20.168 115.447C20.168 115.721 20.087 115.988 19.9351 116.215C19.7832 116.443 19.5673 116.62 19.3148 116.724C19.0622 116.829 18.7843 116.856 18.5161 116.803C18.248 116.75 18.0017 116.618 17.8084 116.425C17.6151 116.232 17.4835 115.985 17.4301 115.717C17.3768 115.449 17.4042 115.171 17.5088 114.918C17.6134 114.666 17.7906 114.45 18.0179 114.298C18.2452 114.146 18.5124 114.065 18.7858 114.065C19.1524 114.065 19.504 114.211 19.7632 114.47C20.0224 114.729 20.168 115.081 20.168 115.447Z" fill="#C5AAFF"/>
<path d="M221.959 116.83C222.722 116.83 223.341 116.211 223.341 115.447C223.341 114.684 222.722 114.065 221.959 114.065C221.195 114.065 220.576 114.684 220.576 115.447C220.576 116.211 221.195 116.83 221.959 116.83Z" fill="#C5AAFF"/>
<path d="M35.4391 116.83C36.2025 116.83 36.8214 116.211 36.8214 115.447C36.8214 114.684 36.2025 114.065 35.4391 114.065C34.6757 114.065 34.0569 114.684 34.0569 115.447C34.0569 116.211 34.6757 116.83 35.4391 116.83Z" fill="#C5AAFF"/>
<path d="M238.612 116.83C239.375 116.83 239.994 116.211 239.994 115.447C239.994 114.684 239.375 114.065 238.612 114.065C237.849 114.065 237.23 114.684 237.23 115.447C237.23 116.211 237.849 116.83 238.612 116.83Z" fill="#C5AAFF"/>
<path d="M53.2028 116.83C53.9662 116.83 54.585 116.211 54.585 115.447C54.585 114.684 53.9662 114.065 53.2028 114.065C52.4394 114.065 51.8206 114.684 51.8206 115.447C51.8206 116.211 52.4394 116.83 53.2028 116.83Z" fill="#C5AAFF"/>
<path d="M255.265 116.83C256.029 116.83 256.648 116.211 256.648 115.447C256.648 114.684 256.029 114.065 255.265 114.065C254.502 114.065 253.883 114.684 253.883 115.447C253.883 116.211 254.502 116.83 255.265 116.83Z" fill="#C5AAFF"/>
<path d="M69.8571 116.83C70.6205 116.83 71.2393 116.211 71.2393 115.447C71.2393 114.684 70.6205 114.065 69.8571 114.065C69.0937 114.065 68.4749 114.684 68.4749 115.447C68.4749 116.211 69.0937 116.83 69.8571 116.83Z" fill="#C5AAFF"/>
<path d="M273.029 116.83C273.792 116.83 274.411 116.211 274.411 115.447C274.411 114.684 273.792 114.065 273.029 114.065C272.266 114.065 271.647 114.684 271.647 115.447C271.647 116.211 272.266 116.83 273.029 116.83Z" fill="#C5AAFF"/>
<path d="M86.5104 116.83C87.2738 116.83 87.8927 116.211 87.8927 115.447C87.8927 114.684 87.2738 114.065 86.5104 114.065C85.747 114.065 85.1282 114.684 85.1282 115.447C85.1282 116.211 85.747 116.83 86.5104 116.83Z" fill="#C5AAFF"/>
<path d="M289.683 116.83C290.447 116.83 291.066 116.211 291.066 115.447C291.066 114.684 290.447 114.065 289.683 114.065C288.92 114.065 288.301 114.684 288.301 115.447C288.301 116.211 288.92 116.83 289.683 116.83Z" fill="#C5AAFF"/>
<path d="M103.164 116.83C103.927 116.83 104.546 116.211 104.546 115.447C104.546 114.684 103.927 114.065 103.164 114.065C102.4 114.065 101.781 114.684 101.781 115.447C101.781 116.211 102.4 116.83 103.164 116.83Z" fill="#C5AAFF"/>
<path d="M306.337 116.83C307.1 116.83 307.719 116.211 307.719 115.447C307.719 114.684 307.1 114.065 306.337 114.065C305.573 114.065 304.954 114.684 304.954 115.447C304.954 116.211 305.573 116.83 306.337 116.83Z" fill="#C5AAFF"/>
<path d="M120.927 116.83C121.691 116.83 122.31 116.211 122.31 115.447C122.31 114.684 121.691 114.065 120.927 114.065C120.164 114.065 119.545 114.684 119.545 115.447C119.545 116.211 120.164 116.83 120.927 116.83Z" fill="#C5AAFF"/>
<path d="M137.581 135.705C138.344 135.705 138.963 135.086 138.963 134.322C138.963 133.559 138.344 132.94 137.581 132.94C136.817 132.94 136.198 133.559 136.198 134.322C136.198 135.086 136.817 135.705 137.581 135.705Z" fill="#C5AAFF"/>
<path d="M154.234 135.705C154.997 135.705 155.616 135.086 155.616 134.322C155.616 133.559 154.997 132.94 154.234 132.94C153.471 132.94 152.852 133.559 152.852 134.322C152.852 135.086 153.471 135.705 154.234 135.705Z" fill="#C5AAFF"/>
<path d="M170.888 135.705C171.652 135.705 172.271 135.086 172.271 134.322C172.271 133.559 171.652 132.94 170.888 132.94C170.125 132.94 169.506 133.559 169.506 134.322C169.506 135.086 170.125 135.705 170.888 135.705Z" fill="#C5AAFF"/>
<path d="M187.542 135.705C188.305 135.705 188.924 135.086 188.924 134.322C188.924 133.559 188.305 132.94 187.542 132.94C186.778 132.94 186.159 133.559 186.159 134.322C186.159 135.086 186.778 135.705 187.542 135.705Z" fill="#C5AAFF"/>
<path d="M2.13248 135.705C2.89587 135.705 3.51472 135.086 3.51472 134.322C3.51472 133.559 2.89587 132.94 2.13248 132.94C1.36909 132.94 0.750244 133.559 0.750244 134.322C0.750244 135.086 1.36909 135.705 2.13248 135.705Z" fill="#C5AAFF"/>
<path d="M206.688 134.322C206.688 134.596 206.607 134.863 206.455 135.09C206.303 135.318 206.087 135.495 205.834 135.599C205.582 135.704 205.304 135.731 205.036 135.678C204.768 135.625 204.521 135.493 204.328 135.3C204.135 135.107 204.003 134.86 203.95 134.592C203.896 134.324 203.924 134.046 204.028 133.793C204.133 133.541 204.31 133.325 204.537 133.173C204.765 133.021 205.032 132.94 205.305 132.94C205.672 132.94 206.024 133.086 206.283 133.345C206.542 133.604 206.688 133.956 206.688 134.322Z" fill="#C5AAFF"/>
<path d="M20.168 134.322C20.168 134.596 20.087 134.863 19.9351 135.09C19.7832 135.318 19.5673 135.495 19.3148 135.599C19.0622 135.704 18.7843 135.731 18.5161 135.678C18.248 135.625 18.0017 135.493 17.8084 135.3C17.6151 135.107 17.4835 134.86 17.4301 134.592C17.3768 134.324 17.4042 134.046 17.5088 133.793C17.6134 133.541 17.7906 133.325 18.0179 133.173C18.2452 133.021 18.5124 132.94 18.7858 132.94C19.1524 132.94 19.504 133.086 19.7632 133.345C20.0224 133.604 20.168 133.956 20.168 134.322Z" fill="#C5AAFF"/>
<path d="M221.959 135.705C222.722 135.705 223.341 135.086 223.341 134.322C223.341 133.559 222.722 132.94 221.959 132.94C221.195 132.94 220.576 133.559 220.576 134.322C220.576 135.086 221.195 135.705 221.959 135.705Z" fill="#C5AAFF"/>
<path d="M35.4391 135.705C36.2025 135.705 36.8214 135.086 36.8214 134.322C36.8214 133.559 36.2025 132.94 35.4391 132.94C34.6757 132.94 34.0569 133.559 34.0569 134.322C34.0569 135.086 34.6757 135.705 35.4391 135.705Z" fill="#C5AAFF"/>
<path d="M238.612 135.705C239.375 135.705 239.994 135.086 239.994 134.322C239.994 133.559 239.375 132.94 238.612 132.94C237.849 132.94 237.23 133.559 237.23 134.322C237.23 135.086 237.849 135.705 238.612 135.705Z" fill="#C5AAFF"/>
<path d="M53.2028 135.705C53.9662 135.705 54.585 135.086 54.585 134.322C54.585 133.559 53.9662 132.94 53.2028 132.94C52.4394 132.94 51.8206 133.559 51.8206 134.322C51.8206 135.086 52.4394 135.705 53.2028 135.705Z" fill="#C5AAFF"/>
<path d="M255.265 135.705C256.029 135.705 256.648 135.086 256.648 134.322C256.648 133.559 256.029 132.94 255.265 132.94C254.502 132.94 253.883 133.559 253.883 134.322C253.883 135.086 254.502 135.705 255.265 135.705Z" fill="#C5AAFF"/>
<path d="M69.8571 135.705C70.6205 135.705 71.2393 135.086 71.2393 134.322C71.2393 133.559 70.6205 132.94 69.8571 132.94C69.0937 132.94 68.4749 133.559 68.4749 134.322C68.4749 135.086 69.0937 135.705 69.8571 135.705Z" fill="#C5AAFF"/>
<path d="M273.029 135.705C273.792 135.705 274.411 135.086 274.411 134.322C274.411 133.559 273.792 132.94 273.029 132.94C272.266 132.94 271.647 133.559 271.647 134.322C271.647 135.086 272.266 135.705 273.029 135.705Z" fill="#C5AAFF"/>
<path d="M86.5104 135.705C87.2738 135.705 87.8927 135.086 87.8927 134.322C87.8927 133.559 87.2738 132.94 86.5104 132.94C85.747 132.94 85.1282 133.559 85.1282 134.322C85.1282 135.086 85.747 135.705 86.5104 135.705Z" fill="#C5AAFF"/>
<path d="M289.683 135.705C290.447 135.705 291.066 135.086 291.066 134.322C291.066 133.559 290.447 132.94 289.683 132.94C288.92 132.94 288.301 133.559 288.301 134.322C288.301 135.086 288.92 135.705 289.683 135.705Z" fill="#C5AAFF"/>
<path d="M103.164 135.705C103.927 135.705 104.546 135.086 104.546 134.322C104.546 133.559 103.927 132.94 103.164 132.94C102.4 132.94 101.781 133.559 101.781 134.322C101.781 135.086 102.4 135.705 103.164 135.705Z" fill="#C5AAFF"/>
<path d="M306.337 135.705C307.1 135.705 307.719 135.086 307.719 134.322C307.719 133.559 307.1 132.94 306.337 132.94C305.573 132.94 304.954 133.559 304.954 134.322C304.954 135.086 305.573 135.705 306.337 135.705Z" fill="#C5AAFF"/>
<path d="M120.927 135.705C121.691 135.705 122.31 135.086 122.31 134.322C122.31 133.559 121.691 132.94 120.927 132.94C120.164 132.94 119.545 133.559 119.545 134.322C119.545 135.086 120.164 135.705 120.927 135.705Z" fill="#C5AAFF"/>
<path d="M137.581 154.58C138.344 154.58 138.963 153.961 138.963 153.197C138.963 152.434 138.344 151.815 137.581 151.815C136.817 151.815 136.198 152.434 136.198 153.197C136.198 153.961 136.817 154.58 137.581 154.58Z" fill="#C5AAFF"/>
<path d="M154.234 154.58C154.997 154.58 155.616 153.961 155.616 153.197C155.616 152.434 154.997 151.815 154.234 151.815C153.471 151.815 152.852 152.434 152.852 153.197C152.852 153.961 153.471 154.58 154.234 154.58Z" fill="#C5AAFF"/>
<path d="M170.888 154.58C171.652 154.58 172.271 153.961 172.271 153.197C172.271 152.434 171.652 151.815 170.888 151.815C170.125 151.815 169.506 152.434 169.506 153.197C169.506 153.961 170.125 154.58 170.888 154.58Z" fill="#C5AAFF"/>
<path d="M187.542 154.58C188.305 154.58 188.924 153.961 188.924 153.197C188.924 152.434 188.305 151.815 187.542 151.815C186.778 151.815 186.159 152.434 186.159 153.197C186.159 153.961 186.778 154.58 187.542 154.58Z" fill="#C5AAFF"/>
<path d="M2.13248 154.58C2.89587 154.58 3.51472 153.961 3.51472 153.197C3.51472 152.434 2.89587 151.815 2.13248 151.815C1.36909 151.815 0.750244 152.434 0.750244 153.197C0.750244 153.961 1.36909 154.58 2.13248 154.58Z" fill="#C5AAFF"/>
<path d="M206.688 153.197C206.688 153.471 206.607 153.738 206.455 153.965C206.303 154.193 206.087 154.37 205.834 154.474C205.582 154.579 205.304 154.606 205.036 154.553C204.768 154.5 204.521 154.368 204.328 154.175C204.135 153.982 204.003 153.735 203.95 153.467C203.896 153.199 203.924 152.921 204.028 152.668C204.133 152.416 204.31 152.2 204.537 152.048C204.765 151.896 205.032 151.815 205.305 151.815C205.672 151.815 206.024 151.961 206.283 152.22C206.542 152.479 206.688 152.831 206.688 153.197Z" fill="#C5AAFF"/>
<path d="M20.168 153.197C20.168 153.471 20.087 153.738 19.9351 153.965C19.7832 154.193 19.5673 154.37 19.3148 154.474C19.0622 154.579 18.7843 154.606 18.5161 154.553C18.248 154.5 18.0017 154.368 17.8084 154.175C17.6151 153.982 17.4835 153.735 17.4301 153.467C17.3768 153.199 17.4042 152.921 17.5088 152.668C17.6134 152.416 17.7906 152.2 18.0179 152.048C18.2452 151.896 18.5124 151.815 18.7858 151.815C19.1524 151.815 19.504 151.961 19.7632 152.22C20.0224 152.479 20.168 152.831 20.168 153.197Z" fill="#C5AAFF"/>
<path d="M221.959 154.58C222.722 154.58 223.341 153.961 223.341 153.197C223.341 152.434 222.722 151.815 221.959 151.815C221.195 151.815 220.576 152.434 220.576 153.197C220.576 153.961 221.195 154.58 221.959 154.58Z" fill="#C5AAFF"/>
<path d="M35.4391 154.58C36.2025 154.58 36.8214 153.961 36.8214 153.197C36.8214 152.434 36.2025 151.815 35.4391 151.815C34.6757 151.815 34.0569 152.434 34.0569 153.197C34.0569 153.961 34.6757 154.58 35.4391 154.58Z" fill="#C5AAFF"/>
<path d="M238.612 154.58C239.375 154.58 239.994 153.961 239.994 153.197C239.994 152.434 239.375 151.815 238.612 151.815C237.849 151.815 237.23 152.434 237.23 153.197C237.23 153.961 237.849 154.58 238.612 154.58Z" fill="#C5AAFF"/>
<path d="M53.2028 154.58C53.9662 154.58 54.585 153.961 54.585 153.197C54.585 152.434 53.9662 151.815 53.2028 151.815C52.4394 151.815 51.8206 152.434 51.8206 153.197C51.8206 153.961 52.4394 154.58 53.2028 154.58Z" fill="#C5AAFF"/>
<path d="M255.265 154.58C256.029 154.58 256.648 153.961 256.648 153.197C256.648 152.434 256.029 151.815 255.265 151.815C254.502 151.815 253.883 152.434 253.883 153.197C253.883 153.961 254.502 154.58 255.265 154.58Z" fill="#C5AAFF"/>
<path d="M69.8571 154.58C70.6205 154.58 71.2393 153.961 71.2393 153.197C71.2393 152.434 70.6205 151.815 69.8571 151.815C69.0937 151.815 68.4749 152.434 68.4749 153.197C68.4749 153.961 69.0937 154.58 69.8571 154.58Z" fill="#C5AAFF"/>
<path d="M273.029 154.58C273.792 154.58 274.411 153.961 274.411 153.197C274.411 152.434 273.792 151.815 273.029 151.815C272.266 151.815 271.647 152.434 271.647 153.197C271.647 153.961 272.266 154.58 273.029 154.58Z" fill="#C5AAFF"/>
<path d="M86.5104 154.58C87.2738 154.58 87.8927 153.961 87.8927 153.197C87.8927 152.434 87.2738 151.815 86.5104 151.815C85.747 151.815 85.1282 152.434 85.1282 153.197C85.1282 153.961 85.747 154.58 86.5104 154.58Z" fill="#C5AAFF"/>
<path d="M289.683 154.58C290.447 154.58 291.066 153.961 291.066 153.197C291.066 152.434 290.447 151.815 289.683 151.815C288.92 151.815 288.301 152.434 288.301 153.197C288.301 153.961 288.92 154.58 289.683 154.58Z" fill="#C5AAFF"/>
<path d="M103.164 154.58C103.927 154.58 104.546 153.961 104.546 153.197C104.546 152.434 103.927 151.815 103.164 151.815C102.4 151.815 101.781 152.434 101.781 153.197C101.781 153.961 102.4 154.58 103.164 154.58Z" fill="#C5AAFF"/>
<path d="M306.337 154.58C307.1 154.58 307.719 153.961 307.719 153.197C307.719 152.434 307.1 151.815 306.337 151.815C305.573 151.815 304.954 152.434 304.954 153.197C304.954 153.961 305.573 154.58 306.337 154.58Z" fill="#C5AAFF"/>
<path d="M120.927 154.58C121.691 154.58 122.31 153.961 122.31 153.197C122.31 152.434 121.691 151.815 120.927 151.815C120.164 151.815 119.545 152.434 119.545 153.197C119.545 153.961 120.164 154.58 120.927 154.58Z" fill="#C5AAFF"/>
<path d="M137.581 173.455C138.344 173.455 138.963 172.836 138.963 172.072C138.963 171.309 138.344 170.69 137.581 170.69C136.817 170.69 136.198 171.309 136.198 172.072C136.198 172.836 136.817 173.455 137.581 173.455Z" fill="#C5AAFF"/>
<path d="M154.234 173.455C154.997 173.455 155.616 172.836 155.616 172.072C155.616 171.309 154.997 170.69 154.234 170.69C153.471 170.69 152.852 171.309 152.852 172.072C152.852 172.836 153.471 173.455 154.234 173.455Z" fill="#C5AAFF"/>
<path d="M170.888 173.455C171.652 173.455 172.271 172.836 172.271 172.072C172.271 171.309 171.652 170.69 170.888 170.69C170.125 170.69 169.506 171.309 169.506 172.072C169.506 172.836 170.125 173.455 170.888 173.455Z" fill="#C5AAFF"/>
<path d="M187.542 173.455C188.305 173.455 188.924 172.836 188.924 172.072C188.924 171.309 188.305 170.69 187.542 170.69C186.778 170.69 186.159 171.309 186.159 172.072C186.159 172.836 186.778 173.455 187.542 173.455Z" fill="#C5AAFF"/>
<path d="M2.13248 173.455C2.89587 173.455 3.51472 172.836 3.51472 172.072C3.51472 171.309 2.89587 170.69 2.13248 170.69C1.36909 170.69 0.750244 171.309 0.750244 172.072C0.750244 172.836 1.36909 173.455 2.13248 173.455Z" fill="#C5AAFF"/>
<path d="M206.688 172.072C206.688 172.346 206.607 172.613 206.455 172.84C206.303 173.068 206.087 173.245 205.834 173.349C205.582 173.454 205.304 173.481 205.036 173.428C204.768 173.375 204.521 173.243 204.328 173.05C204.135 172.857 204.003 172.61 203.95 172.342C203.896 172.074 203.924 171.796 204.028 171.543C204.133 171.291 204.31 171.075 204.537 170.923C204.765 170.771 205.032 170.69 205.305 170.69C205.672 170.69 206.024 170.836 206.283 171.095C206.542 171.354 206.688 171.706 206.688 172.072Z" fill="#C5AAFF"/>
<path d="M20.168 172.072C20.168 172.346 20.087 172.613 19.9351 172.84C19.7832 173.068 19.5673 173.245 19.3148 173.349C19.0622 173.454 18.7843 173.481 18.5161 173.428C18.248 173.375 18.0017 173.243 17.8084 173.05C17.6151 172.857 17.4835 172.61 17.4301 172.342C17.3768 172.074 17.4042 171.796 17.5088 171.543C17.6134 171.291 17.7906 171.075 18.0179 170.923C18.2452 170.771 18.5124 170.69 18.7858 170.69C19.1524 170.69 19.504 170.836 19.7632 171.095C20.0224 171.354 20.168 171.706 20.168 172.072Z" fill="#C5AAFF"/>
<path d="M221.959 173.455C222.722 173.455 223.341 172.836 223.341 172.072C223.341 171.309 222.722 170.69 221.959 170.69C221.195 170.69 220.576 171.309 220.576 172.072C220.576 172.836 221.195 173.455 221.959 173.455Z" fill="#C5AAFF"/>
<path d="M35.4391 173.455C36.2025 173.455 36.8214 172.836 36.8214 172.072C36.8214 171.309 36.2025 170.69 35.4391 170.69C34.6757 170.69 34.0569 171.309 34.0569 172.072C34.0569 172.836 34.6757 173.455 35.4391 173.455Z" fill="#C5AAFF"/>
<path d="M238.612 173.455C239.375 173.455 239.994 172.836 239.994 172.072C239.994 171.309 239.375 170.69 238.612 170.69C237.849 170.69 237.23 171.309 237.23 172.072C237.23 172.836 237.849 173.455 238.612 173.455Z" fill="#C5AAFF"/>
<path d="M53.2028 173.455C53.9662 173.455 54.585 172.836 54.585 172.072C54.585 171.309 53.9662 170.69 53.2028 170.69C52.4394 170.69 51.8206 171.309 51.8206 172.072C51.8206 172.836 52.4394 173.455 53.2028 173.455Z" fill="#C5AAFF"/>
<path d="M255.265 173.455C256.029 173.455 256.648 172.836 256.648 172.072C256.648 171.309 256.029 170.69 255.265 170.69C254.502 170.69 253.883 171.309 253.883 172.072C253.883 172.836 254.502 173.455 255.265 173.455Z" fill="#C5AAFF"/>
<path d="M69.8571 173.455C70.6205 173.455 71.2393 172.836 71.2393 172.072C71.2393 171.309 70.6205 170.69 69.8571 170.69C69.0937 170.69 68.4749 171.309 68.4749 172.072C68.4749 172.836 69.0937 173.455 69.8571 173.455Z" fill="#C5AAFF"/>
<path d="M273.029 173.455C273.792 173.455 274.411 172.836 274.411 172.072C274.411 171.309 273.792 170.69 273.029 170.69C272.266 170.69 271.647 171.309 271.647 172.072C271.647 172.836 272.266 173.455 273.029 173.455Z" fill="#C5AAFF"/>
<path d="M86.5104 173.455C87.2738 173.455 87.8927 172.836 87.8927 172.072C87.8927 171.309 87.2738 170.69 86.5104 170.69C85.747 170.69 85.1282 171.309 85.1282 172.072C85.1282 172.836 85.747 173.455 86.5104 173.455Z" fill="#C5AAFF"/>
<path d="M289.683 173.455C290.447 173.455 291.066 172.836 291.066 172.072C291.066 171.309 290.447 170.69 289.683 170.69C288.92 170.69 288.301 171.309 288.301 172.072C288.301 172.836 288.92 173.455 289.683 173.455Z" fill="#C5AAFF"/>
<path d="M103.164 173.455C103.927 173.455 104.546 172.836 104.546 172.072C104.546 171.309 103.927 170.69 103.164 170.69C102.4 170.69 101.781 171.309 101.781 172.072C101.781 172.836 102.4 173.455 103.164 173.455Z" fill="#C5AAFF"/>
<path d="M306.337 173.455C307.1 173.455 307.719 172.836 307.719 172.072C307.719 171.309 307.1 170.69 306.337 170.69C305.573 170.69 304.954 171.309 304.954 172.072C304.954 172.836 305.573 173.455 306.337 173.455Z" fill="#C5AAFF"/>
<path d="M120.927 173.455C121.691 173.455 122.31 172.836 122.31 172.072C122.31 171.309 121.691 170.69 120.927 170.69C120.164 170.69 119.545 171.309 119.545 172.072C119.545 172.836 120.164 173.455 120.927 173.455Z" fill="#C5AAFF"/>
<path d="M137.581 192.326C138.344 192.326 138.963 191.707 138.963 190.944C138.963 190.18 138.344 189.561 137.581 189.561C136.817 189.561 136.198 190.18 136.198 190.944C136.198 191.707 136.817 192.326 137.581 192.326Z" fill="#C5AAFF"/>
<path d="M154.234 192.326C154.997 192.326 155.616 191.707 155.616 190.944C155.616 190.18 154.997 189.561 154.234 189.561C153.471 189.561 152.852 190.18 152.852 190.944C152.852 191.707 153.471 192.326 154.234 192.326Z" fill="#C5AAFF"/>
<path d="M170.888 192.326C171.652 192.326 172.271 191.707 172.271 190.944C172.271 190.18 171.652 189.561 170.888 189.561C170.125 189.561 169.506 190.18 169.506 190.944C169.506 191.707 170.125 192.326 170.888 192.326Z" fill="#C5AAFF"/>
<path d="M187.542 192.326C188.305 192.326 188.924 191.707 188.924 190.944C188.924 190.18 188.305 189.561 187.542 189.561C186.778 189.561 186.159 190.18 186.159 190.944C186.159 191.707 186.778 192.326 187.542 192.326Z" fill="#C5AAFF"/>
<path d="M2.13248 192.326C2.89587 192.326 3.51472 191.707 3.51472 190.944C3.51472 190.18 2.89587 189.561 2.13248 189.561C1.36909 189.561 0.750244 190.18 0.750244 190.944C0.750244 191.707 1.36909 192.326 2.13248 192.326Z" fill="#C5AAFF"/>
<path d="M206.688 190.944C206.688 191.217 206.607 191.484 206.455 191.711C206.303 191.939 206.087 192.116 205.834 192.221C205.582 192.325 205.304 192.353 205.036 192.299C204.768 192.246 204.521 192.114 204.328 191.921C204.135 191.728 204.003 191.481 203.95 191.213C203.896 190.945 203.924 190.667 204.028 190.415C204.133 190.162 204.31 189.946 204.537 189.794C204.765 189.642 205.032 189.561 205.305 189.561C205.672 189.561 206.024 189.707 206.283 189.966C206.542 190.225 206.688 190.577 206.688 190.944Z" fill="#C5AAFF"/>
<path d="M20.168 190.944C20.168 191.217 20.087 191.484 19.9351 191.711C19.7832 191.939 19.5673 192.116 19.3148 192.221C19.0622 192.325 18.7843 192.353 18.5161 192.299C18.248 192.246 18.0017 192.114 17.8084 191.921C17.6151 191.728 17.4835 191.481 17.4301 191.213C17.3768 190.945 17.4042 190.667 17.5088 190.415C17.6134 190.162 17.7906 189.946 18.0179 189.794C18.2452 189.642 18.5124 189.561 18.7858 189.561C19.1524 189.561 19.504 189.707 19.7632 189.966C20.0224 190.225 20.168 190.577 20.168 190.944Z" fill="#C5AAFF"/>
<path d="M221.959 192.326C222.722 192.326 223.341 191.707 223.341 190.944C223.341 190.18 222.722 189.561 221.959 189.561C221.195 189.561 220.576 190.18 220.576 190.944C220.576 191.707 221.195 192.326 221.959 192.326Z" fill="#C5AAFF"/>
<path d="M35.4391 192.326C36.2025 192.326 36.8214 191.707 36.8214 190.944C36.8214 190.18 36.2025 189.561 35.4391 189.561C34.6757 189.561 34.0569 190.18 34.0569 190.944C34.0569 191.707 34.6757 192.326 35.4391 192.326Z" fill="#C5AAFF"/>
<path d="M238.612 192.326C239.375 192.326 239.994 191.707 239.994 190.944C239.994 190.18 239.375 189.561 238.612 189.561C237.849 189.561 237.23 190.18 237.23 190.944C237.23 191.707 237.849 192.326 238.612 192.326Z" fill="#C5AAFF"/>
<path d="M53.2028 192.326C53.9662 192.326 54.585 191.707 54.585 190.944C54.585 190.18 53.9662 189.561 53.2028 189.561C52.4394 189.561 51.8206 190.18 51.8206 190.944C51.8206 191.707 52.4394 192.326 53.2028 192.326Z" fill="#C5AAFF"/>
<path d="M255.265 192.326C256.029 192.326 256.648 191.707 256.648 190.944C256.648 190.18 256.029 189.561 255.265 189.561C254.502 189.561 253.883 190.18 253.883 190.944C253.883 191.707 254.502 192.326 255.265 192.326Z" fill="#C5AAFF"/>
<path d="M69.8571 192.326C70.6205 192.326 71.2393 191.707 71.2393 190.944C71.2393 190.18 70.6205 189.561 69.8571 189.561C69.0937 189.561 68.4749 190.18 68.4749 190.944C68.4749 191.707 69.0937 192.326 69.8571 192.326Z" fill="#C5AAFF"/>
<path d="M273.029 192.326C273.792 192.326 274.411 191.707 274.411 190.944C274.411 190.18 273.792 189.561 273.029 189.561C272.266 189.561 271.647 190.18 271.647 190.944C271.647 191.707 272.266 192.326 273.029 192.326Z" fill="#C5AAFF"/>
<path d="M86.5104 192.326C87.2738 192.326 87.8927 191.707 87.8927 190.944C87.8927 190.18 87.2738 189.561 86.5104 189.561C85.747 189.561 85.1282 190.18 85.1282 190.944C85.1282 191.707 85.747 192.326 86.5104 192.326Z" fill="#C5AAFF"/>
<path d="M289.683 192.326C290.447 192.326 291.066 191.707 291.066 190.944C291.066 190.18 290.447 189.561 289.683 189.561C288.92 189.561 288.301 190.18 288.301 190.944C288.301 191.707 288.92 192.326 289.683 192.326Z" fill="#C5AAFF"/>
<path d="M103.164 192.326C103.927 192.326 104.546 191.707 104.546 190.944C104.546 190.18 103.927 189.561 103.164 189.561C102.4 189.561 101.781 190.18 101.781 190.944C101.781 191.707 102.4 192.326 103.164 192.326Z" fill="#C5AAFF"/>
<path d="M306.337 192.326C307.1 192.326 307.719 191.707 307.719 190.944C307.719 190.18 307.1 189.561 306.337 189.561C305.573 189.561 304.954 190.18 304.954 190.944C304.954 191.707 305.573 192.326 306.337 192.326Z" fill="#C5AAFF"/>
<path d="M120.927 192.326C121.691 192.326 122.31 191.707 122.31 190.944C122.31 190.18 121.691 189.561 120.927 189.561C120.164 189.561 119.545 190.18 119.545 190.944C119.545 191.707 120.164 192.326 120.927 192.326Z" fill="#C5AAFF"/>
<path d="M137.581 211.201C138.344 211.201 138.963 210.582 138.963 209.819C138.963 209.055 138.344 208.436 137.581 208.436C136.817 208.436 136.198 209.055 136.198 209.819C136.198 210.582 136.817 211.201 137.581 211.201Z" fill="#C5AAFF"/>
<path d="M154.234 211.201C154.997 211.201 155.616 210.582 155.616 209.819C155.616 209.055 154.997 208.436 154.234 208.436C153.471 208.436 152.852 209.055 152.852 209.819C152.852 210.582 153.471 211.201 154.234 211.201Z" fill="#C5AAFF"/>
<path d="M170.888 211.201C171.652 211.201 172.271 210.582 172.271 209.819C172.271 209.055 171.652 208.436 170.888 208.436C170.125 208.436 169.506 209.055 169.506 209.819C169.506 210.582 170.125 211.201 170.888 211.201Z" fill="#C5AAFF"/>
<path d="M187.542 211.201C188.305 211.201 188.924 210.582 188.924 209.819C188.924 209.055 188.305 208.436 187.542 208.436C186.778 208.436 186.159 209.055 186.159 209.819C186.159 210.582 186.778 211.201 187.542 211.201Z" fill="#C5AAFF"/>
<path d="M2.13248 211.201C2.89587 211.201 3.51472 210.582 3.51472 209.819C3.51472 209.055 2.89587 208.436 2.13248 208.436C1.36909 208.436 0.750244 209.055 0.750244 209.819C0.750244 210.582 1.36909 211.201 2.13248 211.201Z" fill="#C5AAFF"/>
<path d="M206.688 209.819C206.688 210.092 206.607 210.359 206.455 210.586C206.303 210.814 206.087 210.991 205.834 211.096C205.582 211.2 205.304 211.228 205.036 211.174C204.768 211.121 204.521 210.989 204.328 210.796C204.135 210.603 204.003 210.356 203.95 210.088C203.896 209.82 203.924 209.542 204.028 209.29C204.133 209.037 204.31 208.821 204.537 208.669C204.765 208.517 205.032 208.436 205.305 208.436C205.672 208.436 206.024 208.582 206.283 208.841C206.542 209.1 206.688 209.452 206.688 209.819Z" fill="#C5AAFF"/>
<path d="M20.168 209.819C20.168 210.092 20.087 210.359 19.9351 210.586C19.7832 210.814 19.5673 210.991 19.3148 211.096C19.0622 211.2 18.7843 211.228 18.5161 211.174C18.248 211.121 18.0017 210.989 17.8084 210.796C17.6151 210.603 17.4835 210.356 17.4301 210.088C17.3768 209.82 17.4042 209.542 17.5088 209.29C17.6134 209.037 17.7906 208.821 18.0179 208.669C18.2452 208.517 18.5124 208.436 18.7858 208.436C19.1524 208.436 19.504 208.582 19.7632 208.841C20.0224 209.1 20.168 209.452 20.168 209.819Z" fill="#C5AAFF"/>
<path d="M221.959 211.201C222.722 211.201 223.341 210.582 223.341 209.819C223.341 209.055 222.722 208.436 221.959 208.436C221.195 208.436 220.576 209.055 220.576 209.819C220.576 210.582 221.195 211.201 221.959 211.201Z" fill="#C5AAFF"/>
<path d="M35.4391 211.201C36.2025 211.201 36.8214 210.582 36.8214 209.819C36.8214 209.055 36.2025 208.436 35.4391 208.436C34.6757 208.436 34.0569 209.055 34.0569 209.819C34.0569 210.582 34.6757 211.201 35.4391 211.201Z" fill="#C5AAFF"/>
<path d="M238.612 211.201C239.375 211.201 239.994 210.582 239.994 209.819C239.994 209.055 239.375 208.436 238.612 208.436C237.849 208.436 237.23 209.055 237.23 209.819C237.23 210.582 237.849 211.201 238.612 211.201Z" fill="#C5AAFF"/>
<path d="M53.2028 211.201C53.9662 211.201 54.585 210.582 54.585 209.819C54.585 209.055 53.9662 208.436 53.2028 208.436C52.4394 208.436 51.8206 209.055 51.8206 209.819C51.8206 210.582 52.4394 211.201 53.2028 211.201Z" fill="#C5AAFF"/>
<path d="M255.265 211.201C256.029 211.201 256.648 210.582 256.648 209.819C256.648 209.055 256.029 208.436 255.265 208.436C254.502 208.436 253.883 209.055 253.883 209.819C253.883 210.582 254.502 211.201 255.265 211.201Z" fill="#C5AAFF"/>
<path d="M69.8571 211.201C70.6205 211.201 71.2393 210.582 71.2393 209.819C71.2393 209.055 70.6205 208.436 69.8571 208.436C69.0937 208.436 68.4749 209.055 68.4749 209.819C68.4749 210.582 69.0937 211.201 69.8571 211.201Z" fill="#C5AAFF"/>
<path d="M273.029 211.201C273.792 211.201 274.411 210.582 274.411 209.819C274.411 209.055 273.792 208.436 273.029 208.436C272.266 208.436 271.647 209.055 271.647 209.819C271.647 210.582 272.266 211.201 273.029 211.201Z" fill="#C5AAFF"/>
<path d="M86.5104 211.201C87.2738 211.201 87.8927 210.582 87.8927 209.819C87.8927 209.055 87.2738 208.436 86.5104 208.436C85.747 208.436 85.1282 209.055 85.1282 209.819C85.1282 210.582 85.747 211.201 86.5104 211.201Z" fill="#C5AAFF"/>
<path d="M289.683 211.201C290.447 211.201 291.066 210.582 291.066 209.819C291.066 209.055 290.447 208.436 289.683 208.436C288.92 208.436 288.301 209.055 288.301 209.819C288.301 210.582 288.92 211.201 289.683 211.201Z" fill="#C5AAFF"/>
<path d="M103.164 211.201C103.927 211.201 104.546 210.582 104.546 209.819C104.546 209.055 103.927 208.436 103.164 208.436C102.4 208.436 101.781 209.055 101.781 209.819C101.781 210.582 102.4 211.201 103.164 211.201Z" fill="#C5AAFF"/>
<path d="M306.337 211.201C307.1 211.201 307.719 210.582 307.719 209.819C307.719 209.055 307.1 208.436 306.337 208.436C305.573 208.436 304.954 209.055 304.954 209.819C304.954 210.582 305.573 211.201 306.337 211.201Z" fill="#C5AAFF"/>
<path d="M120.927 211.201C121.691 211.201 122.31 210.582 122.31 209.819C122.31 209.055 121.691 208.436 120.927 208.436C120.164 208.436 119.545 209.055 119.545 209.819C119.545 210.582 120.164 211.201 120.927 211.201Z" fill="#C5AAFF"/>
<path d="M137.581 230.076C138.344 230.076 138.963 229.457 138.963 228.694C138.963 227.93 138.344 227.311 137.581 227.311C136.817 227.311 136.198 227.93 136.198 228.694C136.198 229.457 136.817 230.076 137.581 230.076Z" fill="#C5AAFF"/>
<path d="M154.234 230.076C154.997 230.076 155.616 229.457 155.616 228.694C155.616 227.93 154.997 227.311 154.234 227.311C153.471 227.311 152.852 227.93 152.852 228.694C152.852 229.457 153.471 230.076 154.234 230.076Z" fill="#C5AAFF"/>
<path d="M170.888 230.076C171.652 230.076 172.271 229.457 172.271 228.694C172.271 227.93 171.652 227.311 170.888 227.311C170.125 227.311 169.506 227.93 169.506 228.694C169.506 229.457 170.125 230.076 170.888 230.076Z" fill="#C5AAFF"/>
<path d="M187.542 230.076C188.305 230.076 188.924 229.457 188.924 228.694C188.924 227.93 188.305 227.311 187.542 227.311C186.778 227.311 186.159 227.93 186.159 228.694C186.159 229.457 186.778 230.076 187.542 230.076Z" fill="#C5AAFF"/>
<path d="M2.13248 230.076C2.89587 230.076 3.51472 229.457 3.51472 228.694C3.51472 227.93 2.89587 227.311 2.13248 227.311C1.36909 227.311 0.750244 227.93 0.750244 228.694C0.750244 229.457 1.36909 230.076 2.13248 230.076Z" fill="#C5AAFF"/>
<path d="M206.688 228.694C206.688 228.967 206.607 229.234 206.455 229.461C206.303 229.689 206.087 229.866 205.834 229.971C205.582 230.075 205.304 230.103 205.036 230.049C204.768 229.996 204.521 229.864 204.328 229.671C204.135 229.478 204.003 229.231 203.95 228.963C203.896 228.695 203.924 228.417 204.028 228.165C204.133 227.912 204.31 227.696 204.537 227.544C204.765 227.392 205.032 227.311 205.305 227.311C205.672 227.311 206.024 227.457 206.283 227.716C206.542 227.975 206.688 228.327 206.688 228.694Z" fill="#C5AAFF"/>
<path d="M20.168 228.694C20.168 228.967 20.087 229.234 19.9351 229.461C19.7832 229.689 19.5673 229.866 19.3148 229.971C19.0622 230.075 18.7843 230.103 18.5161 230.049C18.248 229.996 18.0017 229.864 17.8084 229.671C17.6151 229.478 17.4835 229.231 17.4301 228.963C17.3768 228.695 17.4042 228.417 17.5088 228.165C17.6134 227.912 17.7906 227.696 18.0179 227.544C18.2452 227.392 18.5124 227.311 18.7858 227.311C19.1524 227.311 19.504 227.457 19.7632 227.716C20.0224 227.975 20.168 228.327 20.168 228.694Z" fill="#C5AAFF"/>
<path d="M221.959 230.076C222.722 230.076 223.341 229.457 223.341 228.694C223.341 227.93 222.722 227.311 221.959 227.311C221.195 227.311 220.576 227.93 220.576 228.694C220.576 229.457 221.195 230.076 221.959 230.076Z" fill="#C5AAFF"/>
<path d="M35.4391 230.076C36.2025 230.076 36.8214 229.457 36.8214 228.694C36.8214 227.93 36.2025 227.311 35.4391 227.311C34.6757 227.311 34.0569 227.93 34.0569 228.694C34.0569 229.457 34.6757 230.076 35.4391 230.076Z" fill="#C5AAFF"/>
<path d="M238.612 230.076C239.375 230.076 239.994 229.457 239.994 228.694C239.994 227.93 239.375 227.311 238.612 227.311C237.849 227.311 237.23 227.93 237.23 228.694C237.23 229.457 237.849 230.076 238.612 230.076Z" fill="#C5AAFF"/>
<path d="M53.2028 230.076C53.9662 230.076 54.585 229.457 54.585 228.694C54.585 227.93 53.9662 227.311 53.2028 227.311C52.4394 227.311 51.8206 227.93 51.8206 228.694C51.8206 229.457 52.4394 230.076 53.2028 230.076Z" fill="#C5AAFF"/>
<path d="M255.265 230.076C256.029 230.076 256.648 229.457 256.648 228.694C256.648 227.93 256.029 227.311 255.265 227.311C254.502 227.311 253.883 227.93 253.883 228.694C253.883 229.457 254.502 230.076 255.265 230.076Z" fill="#C5AAFF"/>
<path d="M69.8571 230.076C70.6205 230.076 71.2393 229.457 71.2393 228.694C71.2393 227.93 70.6205 227.311 69.8571 227.311C69.0937 227.311 68.4749 227.93 68.4749 228.694C68.4749 229.457 69.0937 230.076 69.8571 230.076Z" fill="#C5AAFF"/>
<path d="M273.029 230.076C273.792 230.076 274.411 229.457 274.411 228.694C274.411 227.93 273.792 227.311 273.029 227.311C272.266 227.311 271.647 227.93 271.647 228.694C271.647 229.457 272.266 230.076 273.029 230.076Z" fill="#C5AAFF"/>
<path d="M86.5104 230.076C87.2738 230.076 87.8927 229.457 87.8927 228.694C87.8927 227.93 87.2738 227.311 86.5104 227.311C85.747 227.311 85.1282 227.93 85.1282 228.694C85.1282 229.457 85.747 230.076 86.5104 230.076Z" fill="#C5AAFF"/>
<path d="M289.683 230.076C290.447 230.076 291.066 229.457 291.066 228.694C291.066 227.93 290.447 227.311 289.683 227.311C288.92 227.311 288.301 227.93 288.301 228.694C288.301 229.457 288.92 230.076 289.683 230.076Z" fill="#C5AAFF"/>
<path d="M103.164 230.076C103.927 230.076 104.546 229.457 104.546 228.694C104.546 227.93 103.927 227.311 103.164 227.311C102.4 227.311 101.781 227.93 101.781 228.694C101.781 229.457 102.4 230.076 103.164 230.076Z" fill="#C5AAFF"/>
<path d="M306.337 230.076C307.1 230.076 307.719 229.457 307.719 228.694C307.719 227.93 307.1 227.311 306.337 227.311C305.573 227.311 304.954 227.93 304.954 228.694C304.954 229.457 305.573 230.076 306.337 230.076Z" fill="#C5AAFF"/>
<path d="M120.927 230.076C121.691 230.076 122.31 229.457 122.31 228.694C122.31 227.93 121.691 227.311 120.927 227.311C120.164 227.311 119.545 227.93 119.545 228.694C119.545 229.457 120.164 230.076 120.927 230.076Z" fill="#C5AAFF"/>
<path d="M137.581 248.951C138.344 248.951 138.963 248.332 138.963 247.569C138.963 246.805 138.344 246.186 137.581 246.186C136.817 246.186 136.198 246.805 136.198 247.569C136.198 248.332 136.817 248.951 137.581 248.951Z" fill="#C5AAFF"/>
<path d="M154.234 248.951C154.997 248.951 155.616 248.332 155.616 247.569C155.616 246.805 154.997 246.186 154.234 246.186C153.471 246.186 152.852 246.805 152.852 247.569C152.852 248.332 153.471 248.951 154.234 248.951Z" fill="#C5AAFF"/>
<path d="M170.888 248.951C171.652 248.951 172.271 248.332 172.271 247.569C172.271 246.805 171.652 246.186 170.888 246.186C170.125 246.186 169.506 246.805 169.506 247.569C169.506 248.332 170.125 248.951 170.888 248.951Z" fill="#C5AAFF"/>
<path d="M187.542 248.951C188.305 248.951 188.924 248.332 188.924 247.569C188.924 246.805 188.305 246.186 187.542 246.186C186.778 246.186 186.159 246.805 186.159 247.569C186.159 248.332 186.778 248.951 187.542 248.951Z" fill="#C5AAFF"/>
<path d="M2.13248 248.951C2.89587 248.951 3.51472 248.332 3.51472 247.569C3.51472 246.805 2.89587 246.186 2.13248 246.186C1.36909 246.186 0.750244 246.805 0.750244 247.569C0.750244 248.332 1.36909 248.951 2.13248 248.951Z" fill="#C5AAFF"/>
<path d="M206.688 247.569C206.688 247.842 206.607 248.109 206.455 248.336C206.303 248.564 206.087 248.741 205.834 248.846C205.582 248.95 205.304 248.978 205.036 248.924C204.768 248.871 204.521 248.739 204.328 248.546C204.135 248.353 204.003 248.106 203.95 247.838C203.896 247.57 203.924 247.292 204.028 247.04C204.133 246.787 204.31 246.571 204.537 246.419C204.765 246.267 205.032 246.186 205.305 246.186C205.672 246.186 206.024 246.332 206.283 246.591C206.542 246.85 206.688 247.202 206.688 247.569Z" fill="#C5AAFF"/>
<path d="M20.168 247.569C20.168 247.842 20.087 248.109 19.9351 248.336C19.7832 248.564 19.5673 248.741 19.3148 248.846C19.0622 248.95 18.7843 248.978 18.5161 248.924C18.248 248.871 18.0017 248.739 17.8084 248.546C17.6151 248.353 17.4835 248.106 17.4301 247.838C17.3768 247.57 17.4042 247.292 17.5088 247.04C17.6134 246.787 17.7906 246.571 18.0179 246.419C18.2452 246.267 18.5124 246.186 18.7858 246.186C19.1524 246.186 19.504 246.332 19.7632 246.591C20.0224 246.85 20.168 247.202 20.168 247.569Z" fill="#C5AAFF"/>
<path d="M221.959 248.951C222.722 248.951 223.341 248.332 223.341 247.569C223.341 246.805 222.722 246.186 221.959 246.186C221.195 246.186 220.576 246.805 220.576 247.569C220.576 248.332 221.195 248.951 221.959 248.951Z" fill="#C5AAFF"/>
<path d="M35.4391 248.951C36.2025 248.951 36.8214 248.332 36.8214 247.569C36.8214 246.805 36.2025 246.186 35.4391 246.186C34.6757 246.186 34.0569 246.805 34.0569 247.569C34.0569 248.332 34.6757 248.951 35.4391 248.951Z" fill="#C5AAFF"/>
<path d="M238.612 248.951C239.375 248.951 239.994 248.332 239.994 247.569C239.994 246.805 239.375 246.186 238.612 246.186C237.849 246.186 237.23 246.805 237.23 247.569C237.23 248.332 237.849 248.951 238.612 248.951Z" fill="#C5AAFF"/>
<path d="M53.2028 248.951C53.9662 248.951 54.585 248.332 54.585 247.569C54.585 246.805 53.9662 246.186 53.2028 246.186C52.4394 246.186 51.8206 246.805 51.8206 247.569C51.8206 248.332 52.4394 248.951 53.2028 248.951Z" fill="#C5AAFF"/>
<path d="M255.265 248.951C256.029 248.951 256.648 248.332 256.648 247.569C256.648 246.805 256.029 246.186 255.265 246.186C254.502 246.186 253.883 246.805 253.883 247.569C253.883 248.332 254.502 248.951 255.265 248.951Z" fill="#C5AAFF"/>
<path d="M69.8571 248.951C70.6205 248.951 71.2393 248.332 71.2393 247.569C71.2393 246.805 70.6205 246.186 69.8571 246.186C69.0937 246.186 68.4749 246.805 68.4749 247.569C68.4749 248.332 69.0937 248.951 69.8571 248.951Z" fill="#C5AAFF"/>
<path d="M273.029 248.951C273.792 248.951 274.411 248.332 274.411 247.569C274.411 246.805 273.792 246.186 273.029 246.186C272.266 246.186 271.647 246.805 271.647 247.569C271.647 248.332 272.266 248.951 273.029 248.951Z" fill="#C5AAFF"/>
<path d="M86.5104 248.951C87.2738 248.951 87.8927 248.332 87.8927 247.569C87.8927 246.805 87.2738 246.186 86.5104 246.186C85.747 246.186 85.1282 246.805 85.1282 247.569C85.1282 248.332 85.747 248.951 86.5104 248.951Z" fill="#C5AAFF"/>
<path d="M289.683 248.951C290.447 248.951 291.066 248.332 291.066 247.569C291.066 246.805 290.447 246.186 289.683 246.186C288.92 246.186 288.301 246.805 288.301 247.569C288.301 248.332 288.92 248.951 289.683 248.951Z" fill="#C5AAFF"/>
<path d="M103.164 248.951C103.927 248.951 104.546 248.332 104.546 247.569C104.546 246.805 103.927 246.186 103.164 246.186C102.4 246.186 101.781 246.805 101.781 247.569C101.781 248.332 102.4 248.951 103.164 248.951Z" fill="#C5AAFF"/>
<path d="M306.337 248.951C307.1 248.951 307.719 248.332 307.719 247.569C307.719 246.805 307.1 246.186 306.337 246.186C305.573 246.186 304.954 246.805 304.954 247.569C304.954 248.332 305.573 248.951 306.337 248.951Z" fill="#C5AAFF"/>
<path d="M120.927 248.951C121.691 248.951 122.31 248.332 122.31 247.569C122.31 246.805 121.691 246.186 120.927 246.186C120.164 246.186 119.545 246.805 119.545 247.569C119.545 248.332 120.164 248.951 120.927 248.951Z" fill="#C5AAFF"/>
<path d="M137.581 267.822C138.344 267.822 138.963 267.203 138.963 266.44C138.963 265.676 138.344 265.057 137.581 265.057C136.817 265.057 136.198 265.676 136.198 266.44C136.198 267.203 136.817 267.822 137.581 267.822Z" fill="#C5AAFF"/>
<path d="M154.234 267.822C154.997 267.822 155.616 267.203 155.616 266.44C155.616 265.676 154.997 265.057 154.234 265.057C153.471 265.057 152.852 265.676 152.852 266.44C152.852 267.203 153.471 267.822 154.234 267.822Z" fill="#C5AAFF"/>
<path d="M170.888 267.822C171.652 267.822 172.271 267.203 172.271 266.44C172.271 265.676 171.652 265.057 170.888 265.057C170.125 265.057 169.506 265.676 169.506 266.44C169.506 267.203 170.125 267.822 170.888 267.822Z" fill="#C5AAFF"/>
<path d="M187.542 267.822C188.305 267.822 188.924 267.203 188.924 266.44C188.924 265.676 188.305 265.057 187.542 265.057C186.778 265.057 186.159 265.676 186.159 266.44C186.159 267.203 186.778 267.822 187.542 267.822Z" fill="#C5AAFF"/>
<path d="M2.13248 267.822C2.89587 267.822 3.51472 267.203 3.51472 266.44C3.51472 265.676 2.89587 265.057 2.13248 265.057C1.36909 265.057 0.750244 265.676 0.750244 266.44C0.750244 267.203 1.36909 267.822 2.13248 267.822Z" fill="#C5AAFF"/>
<path d="M206.688 266.44C206.688 266.713 206.607 266.98 206.455 267.208C206.303 267.435 206.087 267.612 205.834 267.717C205.582 267.821 205.304 267.849 205.036 267.795C204.768 267.742 204.521 267.61 204.328 267.417C204.135 267.224 204.003 266.977 203.95 266.709C203.896 266.441 203.924 266.163 204.028 265.911C204.133 265.658 204.31 265.442 204.537 265.29C204.765 265.138 205.032 265.057 205.305 265.057C205.672 265.057 206.024 265.203 206.283 265.462C206.542 265.721 206.688 266.073 206.688 266.44Z" fill="#C5AAFF"/>
<path d="M20.168 266.44C20.168 266.713 20.087 266.98 19.9351 267.208C19.7832 267.435 19.5673 267.612 19.3148 267.717C19.0622 267.821 18.7843 267.849 18.5161 267.795C18.248 267.742 18.0017 267.61 17.8084 267.417C17.6151 267.224 17.4835 266.977 17.4301 266.709C17.3768 266.441 17.4042 266.163 17.5088 265.911C17.6134 265.658 17.7906 265.442 18.0179 265.29C18.2452 265.138 18.5124 265.057 18.7858 265.057C19.1524 265.057 19.504 265.203 19.7632 265.462C20.0224 265.721 20.168 266.073 20.168 266.44Z" fill="#C5AAFF"/>
<path d="M221.959 267.822C222.722 267.822 223.341 267.203 223.341 266.44C223.341 265.676 222.722 265.057 221.959 265.057C221.195 265.057 220.576 265.676 220.576 266.44C220.576 267.203 221.195 267.822 221.959 267.822Z" fill="#C5AAFF"/>
<path d="M35.4391 267.822C36.2025 267.822 36.8214 267.203 36.8214 266.44C36.8214 265.676 36.2025 265.057 35.4391 265.057C34.6757 265.057 34.0569 265.676 34.0569 266.44C34.0569 267.203 34.6757 267.822 35.4391 267.822Z" fill="#C5AAFF"/>
<path d="M238.612 267.822C239.375 267.822 239.994 267.203 239.994 266.44C239.994 265.676 239.375 265.057 238.612 265.057C237.849 265.057 237.23 265.676 237.23 266.44C237.23 267.203 237.849 267.822 238.612 267.822Z" fill="#C5AAFF"/>
<path d="M53.2028 267.822C53.9662 267.822 54.585 267.203 54.585 266.44C54.585 265.676 53.9662 265.057 53.2028 265.057C52.4394 265.057 51.8206 265.676 51.8206 266.44C51.8206 267.203 52.4394 267.822 53.2028 267.822Z" fill="#C5AAFF"/>
<path d="M255.265 267.822C256.029 267.822 256.648 267.203 256.648 266.44C256.648 265.676 256.029 265.057 255.265 265.057C254.502 265.057 253.883 265.676 253.883 266.44C253.883 267.203 254.502 267.822 255.265 267.822Z" fill="#C5AAFF"/>
<path d="M69.8571 267.822C70.6205 267.822 71.2393 267.203 71.2393 266.44C71.2393 265.676 70.6205 265.057 69.8571 265.057C69.0937 265.057 68.4749 265.676 68.4749 266.44C68.4749 267.203 69.0937 267.822 69.8571 267.822Z" fill="#C5AAFF"/>
<path d="M273.029 267.822C273.792 267.822 274.411 267.203 274.411 266.44C274.411 265.676 273.792 265.057 273.029 265.057C272.266 265.057 271.647 265.676 271.647 266.44C271.647 267.203 272.266 267.822 273.029 267.822Z" fill="#C5AAFF"/>
<path d="M86.5104 267.822C87.2738 267.822 87.8927 267.203 87.8927 266.44C87.8927 265.676 87.2738 265.057 86.5104 265.057C85.747 265.057 85.1282 265.676 85.1282 266.44C85.1282 267.203 85.747 267.822 86.5104 267.822Z" fill="#C5AAFF"/>
<path d="M289.683 267.822C290.447 267.822 291.066 267.203 291.066 266.44C291.066 265.676 290.447 265.057 289.683 265.057C288.92 265.057 288.301 265.676 288.301 266.44C288.301 267.203 288.92 267.822 289.683 267.822Z" fill="#C5AAFF"/>
<path d="M103.164 267.822C103.927 267.822 104.546 267.203 104.546 266.44C104.546 265.676 103.927 265.057 103.164 265.057C102.4 265.057 101.781 265.676 101.781 266.44C101.781 267.203 102.4 267.822 103.164 267.822Z" fill="#C5AAFF"/>
<path d="M306.337 267.822C307.1 267.822 307.719 267.203 307.719 266.44C307.719 265.676 307.1 265.057 306.337 265.057C305.573 265.057 304.954 265.676 304.954 266.44C304.954 267.203 305.573 267.822 306.337 267.822Z" fill="#C5AAFF"/>
<path d="M120.927 267.822C121.691 267.822 122.31 267.203 122.31 266.44C122.31 265.676 121.691 265.057 120.927 265.057C120.164 265.057 119.545 265.676 119.545 266.44C119.545 267.203 120.164 267.822 120.927 267.822Z" fill="#C5AAFF"/>
</svg>
