<svg width="112" height="28" viewBox="0 0 112 28" fill="none" xmlns="http://www.w3.org/2000/svg">
<g clip-path="url(#clip0_19952_246)">
<path d="M30.1844 17.916C30.1844 18.8164 30.1956 19.7168 30.1844 20.6153C30.1732 21.3926 29.7948 21.8307 28.982 21.827C28.3314 21.827 27.6771 21.827 27.0284 21.827C25.6713 21.827 25.3879 21.5436 25.386 20.2108C25.386 17.9738 25.386 15.7368 25.386 13.4998C25.386 10.209 25.386 6.91998 25.386 3.63285C25.386 2.15458 25.4811 1.99426 26.9463 1.79293C29.9942 1.37536 33.0533 1.15166 36.0919 1.84326C38.629 2.42115 40.0774 4.14736 40.2657 6.74599C40.3347 7.70416 40.3906 8.67539 40.2135 9.62424C39.63 12.7579 37.7454 14.3387 34.3899 14.5326C33.2714 14.5959 32.1622 14.719 31.0456 14.5698C30.4118 14.486 30.1415 14.7376 30.1769 15.4031C30.2235 16.2383 30.1881 17.0809 30.1881 17.916H30.1844ZM31.9535 10.8322C32.7588 10.8322 33.5585 10.808 34.3116 10.4594C35.3033 10.0083 35.7396 9.03144 35.6053 7.54757C35.4916 6.29486 34.9398 5.64614 33.8158 5.38329C32.8333 5.154 31.8491 5.19688 30.8573 5.26771C30.382 5.305 30.1564 5.50819 30.1769 6.03201C30.2142 7.02374 30.1769 8.01547 30.1881 9.01466C30.203 11.0988 29.9476 10.7334 31.9535 10.8304V10.8322Z" fill="white"/>
<path d="M77.3456 12.6777C78.2609 11.3933 79.1147 10.1984 79.9647 9.00348C80.0896 8.81706 80.2034 8.63065 80.3264 8.46288C81.883 6.22589 81.8848 6.22589 84.627 6.35824C85.1471 6.38434 85.6113 6.47942 85.848 7.01816C86.0643 7.5103 85.8778 7.89803 85.5796 8.2951C84.5338 9.68203 83.529 11.1025 82.4683 12.4689C81.9519 13.1307 81.9091 13.6732 82.3881 14.3853C83.6073 16.1767 84.7519 18.0185 85.93 19.8305C86.2302 20.2891 86.4893 20.7402 86.2078 21.292C85.9151 21.8773 85.3633 21.84 84.8339 21.8326C83.8124 21.8177 82.6156 22.1159 81.8196 21.6816C81.0739 21.2715 80.7346 20.0896 80.222 19.2451C79.4018 17.8955 78.589 16.5421 77.7669 15.1943C77.6495 15.0079 77.6066 14.7208 77.1685 14.6798C77.1685 16.1712 77.148 17.642 77.1685 19.1109C77.2151 22.0171 77.1517 21.8605 74.404 21.8326C74.3108 21.8326 74.2176 21.8326 74.1244 21.8326C72.9947 21.8158 72.6927 21.5194 72.6908 20.4028C72.6908 18.0415 72.6908 15.6803 72.6908 13.319C72.6908 9.50121 72.6908 5.68218 72.6908 1.86191C72.6908 0.752736 72.9481 0.488024 74.0423 0.461926C74.6612 0.448877 75.2839 0.443285 75.9065 0.461926C76.8964 0.502938 77.1611 0.775104 77.1629 1.76683C77.1629 5.05707 77.1629 8.34916 77.1629 11.6468C77.1816 11.9488 77.1107 12.2602 77.3456 12.6777Z" fill="white"/>
<path d="M55.5387 15.0731C55.5387 16.5029 55.5387 17.9308 55.5387 19.3606C55.5387 20.0858 55.3523 20.6655 54.5731 20.9824C51.7399 22.1359 48.6185 22.3808 45.6401 21.6834C43.3509 21.1558 42.238 19.26 42.4188 16.7135C42.6276 13.7495 44.0966 12.2731 47.1836 11.9264C47.7689 11.8611 48.3543 11.7903 48.9415 11.74C49.5604 11.6896 49.84 11.287 49.8493 10.752C49.8587 10.217 49.5417 9.81989 48.934 9.79379C47.6308 9.75737 46.3268 9.82469 45.0342 9.99513C44.4563 10.0678 43.7591 10.271 43.4292 9.63721C43.2163 9.26015 43.0877 8.84139 43.0523 8.40981C43.0168 7.97823 43.0755 7.54409 43.2241 7.13737C43.3528 6.80183 43.6529 6.69744 43.9698 6.6527C46.6411 6.26123 49.3162 5.83807 52.0043 6.50357C54.3438 7.08146 55.5462 8.63244 55.5611 11.0633C55.5723 12.398 55.5611 13.7346 55.5611 15.0694L55.5387 15.0731ZM51.1673 16.4358C51.1542 14.758 50.9417 14.5437 49.2733 14.7394C48.4922 14.8307 47.6329 14.8587 47.1165 15.6081C46.5684 16.4059 46.7269 17.7817 47.3831 18.2403C48.207 18.8163 50.5521 18.7156 50.9772 18.0669C51.0875 17.8817 51.1515 17.6726 51.1636 17.4573C51.1915 17.1181 51.1673 16.7769 51.1673 16.4358Z" fill="white"/>
<path d="M104.346 14.5792C105.092 12.2267 105.863 9.91885 106.533 7.5868C106.809 6.62303 107.342 6.28189 108.278 6.35086C108.837 6.38815 109.396 6.32104 109.955 6.36391C110.874 6.43475 111.275 7.02382 110.979 7.89811C108.866 14.143 106.745 20.3867 104.616 26.6291C104.402 27.2611 104.02 27.5183 103.373 27.4922C102.784 27.4699 102.193 27.5034 101.604 27.4922C100.325 27.4754 99.9578 26.933 100.394 25.7045C100.897 24.2803 101.403 22.8579 101.945 21.4505C102.044 21.2131 102.091 20.9574 102.084 20.7002C102.077 20.4431 102.015 20.1905 101.902 19.9592C100.206 16.088 98.528 12.2099 96.8689 8.32501C96.2798 6.96231 96.6825 6.35645 98.1868 6.36018C101.205 6.36018 100.653 6.09361 101.759 8.76681C102.48 10.5061 103.157 12.2621 103.865 14.0069C103.923 14.1878 103.945 14.4338 104.346 14.5792Z" fill="white"/>
<path d="M17.1912 10.3661C17.1912 11.7624 17.1707 13.1624 17.1912 14.5549C17.2024 15.1141 17.0328 15.487 16.535 15.7647C14.5684 16.8832 12.6203 18.0129 10.6648 19.1482C10.1168 19.4651 9.54633 19.5639 9.21824 18.9394C8.89015 18.3149 9.20333 17.847 9.81477 17.5077C11.2483 16.7154 12.6595 15.884 14.0781 15.0638C15.1052 14.4673 15.1164 13.839 14.0949 13.2462C10.0273 10.885 5.95721 8.53242 1.88466 6.18855C1.43353 5.92944 0.909706 5.76166 0.917162 5.08311C0.917162 4.44744 1.41676 4.27966 1.83619 4.03545C3.70034 2.94865 5.585 1.87863 7.44543 0.77505C8.014 0.437638 8.51172 0.402218 9.08961 0.745223C11.5466 2.18062 14.0072 3.60856 16.4903 4.99736C17.0365 5.30308 17.2005 5.68523 17.1894 6.26871C17.1726 7.63327 17.1894 9.00715 17.1912 10.3661Z" fill="white"/>
<path d="M0.00559896 20.8073C0.00559896 19.0084 0.0205122 17.2114 0.00559896 15.4125C0.00559896 14.8532 0.164052 14.4673 0.658053 14.1877C2.64897 13.0543 4.62124 11.8873 6.62334 10.7689C7.78658 10.1201 8.35328 10.4836 8.35328 11.8445C8.35328 15.3864 8.32905 18.9133 8.35328 22.4478C8.35328 23.1189 8.13704 23.5458 7.54983 23.8757C5.60552 24.9663 3.6873 26.1127 1.74485 27.1995C0.626361 27.8296 0.0298323 27.4754 0.0223757 26.2022C-0.00185833 24.4033 0.00559896 22.6155 0.00559896 20.8073Z" fill="#00B795"/>
<path d="M65.1913 22.0151C64.1698 22.0356 63.1575 22.0151 62.1695 21.6703C59.8468 20.8649 59.0844 18.9523 58.76 16.7936C58.4317 14.7076 58.4771 12.5797 58.8942 10.5096C59.3826 8.16446 60.9094 6.71974 63.2768 6.34318C65.0882 6.06451 66.9358 6.12774 68.7239 6.5296C69.7231 6.74584 69.9188 7.19883 69.7007 8.73116C69.5665 9.66324 69.2216 9.98014 68.2784 9.87948C67.2307 9.76763 66.1961 9.57749 65.1429 9.83661C63.8715 10.1516 63.3402 10.7165 63.2023 11.986C63.0597 13.3742 63.0597 14.7734 63.2023 16.1617C63.3253 17.4163 63.9815 18.0258 65.2528 18.3017C66.2837 18.5236 67.281 18.3521 68.297 18.2682C69.2477 18.188 69.5814 18.4881 69.7007 19.437C69.7436 19.7744 69.766 20.1155 69.7809 20.4567C69.807 21.0942 69.5572 21.5025 68.8805 21.6423C67.667 21.8938 66.4306 22.0188 65.1913 22.0151Z" fill="white"/>
<path d="M93.7651 11.2739C93.7651 14.3497 93.7651 17.4244 93.7651 20.4977C93.7651 21.523 93.4873 21.8157 92.4602 21.8343C91.8077 21.8455 91.1553 21.8343 90.5047 21.8343C89.6528 21.8343 89.2613 21.4205 89.2669 20.5797C89.2669 19.3997 89.2669 18.2197 89.2669 17.0379C89.2669 12.0357 89.2669 7.03542 89.2669 2.037C89.2669 0.683627 89.4775 0.478572 90.8234 0.454338C91.2578 0.445017 91.694 0.454338 92.1284 0.454338C93.5414 0.454338 93.7632 0.687358 93.7632 2.14513L93.7651 11.2739Z" fill="white"/>
</g>
<defs>
<clipPath id="clip0_19952_246">
<rect width="111.074" height="27.0526" fill="white" transform="translate(0 0.450684)"/>
</clipPath>
</defs>
</svg>
