<svg width="112" height="28" viewBox="0 0 112 28" fill="none" xmlns="http://www.w3.org/2000/svg">
<g clip-path="url(#clip0_19912_30)">
<path d="M30.1844 17.9389C30.1844 18.8393 30.1956 19.7397 30.1844 20.6382C30.1732 21.4156 29.7948 21.8537 28.982 21.8499C28.3314 21.8499 27.6771 21.8499 27.0284 21.8499C25.6713 21.8499 25.3879 21.5666 25.386 20.2337C25.386 17.9967 25.386 15.7597 25.386 13.5228C25.386 10.2319 25.386 6.94293 25.386 3.6558C25.386 2.17753 25.4811 2.01721 26.9463 1.81588C29.9942 1.39831 33.0533 1.17461 36.0919 1.86621C38.629 2.4441 40.0774 4.17031 40.2657 6.76894C40.3347 7.72711 40.3906 8.69834 40.2135 9.64719C39.63 12.7808 37.7454 14.3616 34.3899 14.5555C33.2714 14.6189 32.1622 14.7419 31.0456 14.5928C30.4118 14.5089 30.1415 14.7606 30.1769 15.4261C30.2235 16.2612 30.1881 17.1038 30.1881 17.9389H30.1844ZM31.9535 10.8552C32.7588 10.8552 33.5585 10.8309 34.3116 10.4823C35.3033 10.0312 35.7396 9.05439 35.6053 7.57052C35.4916 6.31781 34.9398 5.66909 33.8158 5.40624C32.8333 5.17695 31.8491 5.21983 30.8573 5.29066C30.382 5.32795 30.1564 5.53113 30.1769 6.05496C30.2142 7.04669 30.1769 8.03842 30.1881 9.03761C30.203 11.1217 29.9476 10.7564 31.9535 10.8533V10.8552Z" fill="#2C3332"/>
<path d="M77.3456 12.7007C78.2609 11.4163 79.1147 10.2213 79.9647 9.02643C80.0896 8.84001 80.2034 8.6536 80.3264 8.48583C81.883 6.24884 81.8848 6.24884 84.627 6.38119C85.1471 6.40729 85.6113 6.50237 85.848 7.04111C86.0643 7.53324 85.8778 7.92098 85.5796 8.31805C84.5338 9.70498 83.529 11.1255 82.4683 12.4919C81.9519 13.1537 81.9091 13.6961 82.3881 14.4082C83.6073 16.1997 84.7519 18.0415 85.93 19.8534C86.2302 20.312 86.4893 20.7631 86.2078 21.3149C85.9151 21.9003 85.3633 21.863 84.8339 21.8555C83.8124 21.8406 82.6156 22.1389 81.8196 21.7045C81.0739 21.2944 80.7346 20.1125 80.222 19.2681C79.4018 17.9184 78.589 16.5651 77.7669 15.2173C77.6495 15.0309 77.6066 14.7438 77.1685 14.7028C77.1685 16.1941 77.148 17.6649 77.1685 19.1339C77.2151 22.0401 77.1517 21.8835 74.404 21.8555C74.3108 21.8555 74.2176 21.8555 74.1244 21.8555C72.9947 21.8388 72.6927 21.5424 72.6908 20.4257C72.6908 18.0645 72.6908 15.7032 72.6908 13.3419C72.6908 9.52416 72.6908 5.70513 72.6908 1.88486C72.6908 0.775685 72.9481 0.510974 74.0423 0.484876C74.6612 0.471826 75.2839 0.466234 75.9065 0.484876C76.8964 0.525887 77.1611 0.798053 77.1629 1.78978C77.1629 5.08002 77.1629 8.37211 77.1629 11.6698C77.1816 11.9718 77.1107 12.2831 77.3456 12.7007Z" fill="#2C3332"/>
<path d="M55.5387 15.0961C55.5387 16.5259 55.5387 17.9538 55.5387 19.3836C55.5387 20.1088 55.3523 20.6886 54.5731 21.0055C51.7399 22.1589 48.6185 22.4038 45.6401 21.7064C43.3509 21.1788 42.238 19.283 42.4188 16.7366C42.6276 13.7725 44.0966 12.2961 47.1836 11.9494C47.7689 11.8842 48.3543 11.8133 48.9415 11.763C49.5604 11.7126 49.84 11.31 49.8493 10.775C49.8587 10.24 49.5417 9.8429 48.934 9.8168C47.6308 9.78038 46.3268 9.84771 45.0342 10.0181C44.4563 10.0908 43.7591 10.294 43.4292 9.66022C43.2163 9.28316 43.0877 8.8644 43.0523 8.43282C43.0168 8.00124 43.0755 7.5671 43.2241 7.16039C43.3528 6.82484 43.6529 6.72045 43.9698 6.67571C46.6411 6.28424 49.3162 5.86108 52.0043 6.52658C54.3438 7.10447 55.5462 8.65545 55.5611 11.0863C55.5723 12.421 55.5611 13.7576 55.5611 15.0924L55.5387 15.0961ZM51.1673 16.4588C51.1542 14.781 50.9417 14.5667 49.2733 14.7624C48.4922 14.8538 47.6329 14.8817 47.1165 15.6311C46.5684 16.429 46.7269 17.8047 47.3831 18.2633C48.207 18.8393 50.5521 18.7386 50.9772 18.0899C51.0875 17.9047 51.1515 17.6956 51.1636 17.4804C51.1915 17.1411 51.1673 16.7999 51.1673 16.4588Z" fill="#2C3332"/>
<path d="M104.346 14.6021C105.092 12.2496 105.863 9.94174 106.533 7.60969C106.809 6.64592 107.342 6.30478 108.278 6.37375C108.837 6.41103 109.396 6.34393 109.955 6.3868C110.874 6.45764 111.275 7.04671 110.979 7.921C108.866 14.1659 106.745 20.4096 104.616 26.652C104.402 27.284 104.02 27.5412 103.373 27.5151C102.784 27.4927 102.193 27.5263 101.604 27.5151C100.325 27.4983 99.9578 26.9559 100.394 25.7274C100.897 24.3032 101.403 22.8808 101.945 21.4734C102.044 21.236 102.091 20.9802 102.084 20.7231C102.077 20.466 102.015 20.2134 101.902 19.9821C100.206 16.1108 98.528 12.2328 96.8689 8.34789C96.2798 6.9852 96.6825 6.37934 98.1868 6.38307C101.205 6.38307 100.653 6.1165 101.759 8.7897C102.48 10.529 103.157 12.285 103.865 14.0298C103.923 14.2107 103.945 14.4567 104.346 14.6021Z" fill="#2C3332"/>
<path d="M17.1912 10.3891C17.1912 11.7854 17.1707 13.1854 17.1912 14.5779C17.2024 15.1371 17.0328 15.51 16.535 15.7877C14.5684 16.9062 12.6203 18.0359 10.6648 19.1712C10.1168 19.4881 9.54633 19.5869 9.21824 18.9624C8.89015 18.3379 9.20333 17.87 9.81477 17.5307C11.2483 16.7384 12.6595 15.907 14.0781 15.0868C15.1052 14.4903 15.1164 13.862 14.0949 13.2692C10.0273 10.908 5.95721 8.55543 1.88466 6.21156C1.43353 5.95245 0.909706 5.78467 0.917162 5.10612C0.917162 4.47045 1.41676 4.30267 1.83619 4.05846C3.70034 2.97166 5.585 1.90164 7.44543 0.79806C8.014 0.460648 8.51172 0.425228 9.08961 0.768233C11.5466 2.20363 14.0072 3.63157 16.4903 5.02037C17.0365 5.32609 17.2005 5.70824 17.1894 6.29172C17.1726 7.65628 17.1894 9.03016 17.1912 10.3891Z" fill="#2C3332"/>
<path d="M0.00559896 20.8302C0.00559896 19.0313 0.0205122 17.2343 0.00559896 15.4354C0.00559896 14.8761 0.164052 14.4902 0.658053 14.2106C2.64897 13.0772 4.62124 11.9103 6.62334 10.7918C7.78658 10.143 8.35328 10.5066 8.35328 11.8674C8.35328 15.4093 8.32905 18.9363 8.35328 22.4707C8.35328 23.1418 8.13704 23.5687 7.54983 23.8986C5.60552 24.9892 3.6873 26.1356 1.74485 27.2224C0.626361 27.8525 0.0298323 27.4983 0.0223757 26.2251C-0.00185833 24.4262 0.00559896 22.6385 0.00559896 20.8302Z" fill="#00B795"/>
<path d="M65.1913 22.0382C64.1698 22.0587 63.1575 22.0382 62.1695 21.6934C59.8468 20.888 59.0844 18.9754 58.76 16.8167C58.4317 14.7307 58.4771 12.6028 58.8942 10.5327C59.3826 8.18756 60.9094 6.74285 63.2768 6.36629C65.0882 6.08761 66.9358 6.15084 68.7239 6.5527C69.7231 6.76894 69.9188 7.22193 69.7007 8.75427C69.5665 9.68634 69.2216 10.0032 68.2784 9.90258C67.2307 9.79073 66.1961 9.60059 65.1429 9.85971C63.8715 10.1748 63.3402 10.7396 63.2023 12.0091C63.0597 13.3973 63.0597 14.7965 63.2023 16.1848C63.3253 17.4394 63.9815 18.0489 65.2528 18.3248C66.2837 18.5467 67.281 18.3752 68.297 18.2913C69.2477 18.2111 69.5814 18.5112 69.7007 19.4601C69.7436 19.7975 69.766 20.1386 69.7809 20.4798C69.807 21.1173 69.5572 21.5256 68.8805 21.6654C67.667 21.9169 66.4306 22.0419 65.1913 22.0382Z" fill="#2C3332"/>
<path d="M93.7651 11.297C93.7651 14.3728 93.7651 17.4474 93.7651 20.5208C93.7651 21.5461 93.4873 21.8387 92.4602 21.8574C91.8077 21.8686 91.1553 21.8574 90.5047 21.8574C89.6528 21.8574 89.2613 21.4436 89.2669 20.6028C89.2669 19.4228 89.2669 18.2428 89.2669 17.0609C89.2669 12.0588 89.2669 7.05849 89.2669 2.06007C89.2669 0.706698 89.4775 0.501643 90.8234 0.477409C91.2578 0.468088 91.694 0.477409 92.1284 0.477409C93.5414 0.477409 93.7632 0.71043 93.7632 2.1682L93.7651 11.297Z" fill="#2C3332"/>
</g>
<defs>
<clipPath id="clip0_19912_30">
<rect width="111.074" height="27.0526" fill="white" transform="translate(0 0.473694)"/>
</clipPath>
</defs>
</svg>
