<?xml version="1.0" encoding="UTF-8"?>
<svg id="Layer_1" data-name="Layer 1" xmlns="http://www.w3.org/2000/svg" viewBox="0 0 497.2 121.09">
  <defs>
    <style>
      .cls-1 {
        fill: #2c3332;
      }

      .cls-2 {
        fill: #00b795;
      }
    </style>
  </defs>
  <path class="cls-1" d="m135.12,78.18c0,4.03.04,8.06,0,12.08-.05,3.48-1.74,5.43-5.38,5.43-2.92-.01-5.83.03-8.75.02-6.07-.03-7.34-1.26-7.35-7.23-.02-10,0-20,0-30V14.31c0-6.61.43-7.33,6.99-8.23,13.64-1.87,27.34-2.87,40.94.23,11.36,2.59,17.85,10.31,18.69,21.94.31,4.29.56,8.64-.23,12.88-2.6,13.97-11.07,21.04-26.06,21.91-4.98.29-9.97.82-14.97.17-2.84-.37-4.05.75-3.89,3.73.2,3.74.05,7.5.05,11.25t-.02-.01Zm7.92-31.72c3.61.02,7.19-.12,10.56-1.65,4.44-2.02,6.39-6.39,5.79-13.04-.51-5.6-2.97-8.5-8.01-9.68-4.39-1.03-8.81-.85-13.24-.51-2.13.16-3.14,1.07-3.05,3.42.17,4.43.02,8.88.05,13.32.06,9.34-1.08,7.71,7.9,8.14Z"/>
  <path class="cls-1" d="m346.23,54.73c4.1-5.75,7.92-11.1,11.72-16.45.56-.79,1.07-1.62,1.62-2.42q6.97-10.03,19.25-9.41c2.33.12,4.41.54,5.47,2.95.97,2.2.14,3.94-1.21,5.72-4.68,6.2-9.14,12.57-13.92,18.68-2.31,2.96-2.53,5.39-.36,8.58,5.45,8.02,10.58,16.26,15.89,24.37,1.34,2.05,2.48,4.07,1.24,6.54-1.31,2.62-3.78,2.45-6.15,2.42-4.57-.07-9.93,1.27-13.5-.68-3.36-1.83-4.85-7.12-7.15-10.91-3.67-6.04-7.31-12.1-10.99-18.14-.53-.87-.72-2.12-2.68-2.3,0,6.67-.09,13.26.02,19.84.21,13-.08,12.31-12.37,12.18-.42,0-.83.01-1.25.01-5.06-.07-6.41-1.4-6.42-6.4-.01-10.56,0-21.13,0-31.69,0-17.1-.01-34.19.01-51.29,0-4.96,1.15-6.15,6.05-6.27,2.78-.06,5.56-.09,8.33.03,4.44.18,5.62,1.4,5.63,5.86.03,14.73.01,29.47.03,44.2,0,1.32-.31,2.71.74,4.58Z"/>
  <path class="cls-1" d="m248.61,65.45c0,6.4.02,12.79-.01,19.19-.01,3.24-.83,5.87-4.32,7.25-13.02,5.19-26.46,6.26-39.98,3.15-10.25-2.36-15.23-10.81-14.42-22.24.94-13.27,7.51-19.88,21.33-21.43,2.62-.29,5.24-.61,7.87-.83,2.76-.23,4.01-2.03,4.06-4.42.05-2.49-1.38-4.2-4.1-4.29-5.84-.19-11.66.17-17.46.9-2.59.33-5.71,1.24-7.19-1.6-1.79-3.44-2.4-7.32-.91-11.19.57-1.5,1.91-1.96,3.31-2.17,11.96-1.75,23.93-3.64,35.96-.67,10.47,2.59,15.84,9.54,15.92,20.41.05,5.98.01,11.96.01,17.94,0,0-.04,0-.07,0Zm-19.55,6.1c-.05-7.49-1.01-8.47-8.48-7.6-3.49.41-7.34.54-9.65,3.89-2.45,3.57-1.75,9.73,1.19,11.78,3.69,2.58,14.16,2.13,16.09-.77.51-.76.74-1.8.82-2.74.12-1.5.03-3.03.03-4.56Z"/>
  <path class="cls-1" d="m467.08,63.24c3.33-10.53,6.79-20.85,9.79-31.3,1.24-4.32,3.62-5.83,7.81-5.54,2.49.17,5.01-.13,7.5.06,4.12.32,5.91,2.95,4.59,6.87-9.47,27.96-19.03,55.88-28.48,83.84-.96,2.83-2.67,3.98-5.56,3.87-2.63-.1-5.28.05-7.92,0-5.73-.07-7.37-2.47-5.42-8,2.25-6.37,4.52-12.74,6.94-19.04.91-2.36.83-4.38-.19-6.71-7.59-17.33-15.08-34.7-22.58-52.07-2.63-6.1-.81-8.81,5.9-8.8,13.51.04,11.04-1.19,15.99,10.77,3.22,7.79,6.25,15.65,9.42,23.46.35.83.42,1.93,2.21,2.58Z"/>
  <g>
    <path class="cls-1" d="m76.95,44.38c0,6.25-.08,12.5.04,18.75.05,2.49-.7,4.15-2.94,5.41-8.8,4.98-17.53,10.07-26.27,15.14-2.45,1.42-4.99,1.86-6.47-.93-1.49-2.8-.07-4.89,2.67-6.41,6.42-3.55,12.74-7.27,19.09-10.95,4.6-2.67,4.65-5.48.07-8.13-18.21-10.54-36.44-21.06-54.66-31.58-2.01-1.16-4.36-1.91-4.32-4.95.03-2.84,2.23-3.59,4.11-4.68C16.64,11.18,25.06,6.39,33.38,1.45c2.54-1.51,4.77-1.64,7.36-.13,11,6.42,22.01,12.81,33.12,19.03,2.44,1.37,3.18,3.08,3.13,5.69-.12,6.11-.04,12.23-.04,18.34Z"/>
    <path class="cls-2" d="m.03,91.12C.03,83.07.09,75.02,0,66.97c-.03-2.47.71-4.23,2.92-5.48,8.92-5.07,17.74-10.3,26.69-15.3,5.21-2.91,7.75-1.28,7.75,4.81,0,15.82-.11,31.64-.03,47.46,0,3-.97,4.91-3.59,6.39-8.71,4.88-17.29,9.99-25.99,14.88-5.01,2.82-7.67,1.23-7.71-4.47-.05-8.04-.01-16.09-.01-24.14Z"/>
  </g>
  <path class="cls-1" d="m291.82,96.53c-4.58.09-9.1-.01-13.53-1.54-10.4-3.6-13.82-12.17-15.26-21.83-1.4-9.36-1.35-18.79.6-28.13,2.19-10.5,9.02-16.97,19.61-18.65,8.19-1.3,16.31-.96,24.39.8,4.47.97,5.34,3,4.37,9.86-.6,4.21-2.14,5.59-6.37,5.14-4.68-.5-9.32-1.35-14.03-.19-5.69,1.4-8.07,3.93-8.68,9.62-.67,6.23-.6,12.46.01,18.69.55,5.62,3.49,8.35,9.17,9.58,4.61,1,9.08.23,13.63-.15,4.25-.35,5.75.99,6.29,5.24.19,1.51.29,3.04.36,4.56.12,2.86-1,4.68-4.03,5.31-5.47,1.11-10.97,1.71-16.53,1.69Z"/>
  <path class="cls-1" d="m419.72,48.45c0,13.76,0,27.53.01,41.29,0,4.59-1.24,5.9-5.86,5.98-2.92.05-5.84-.02-8.76.01-3.81.04-5.56-1.85-5.54-5.61.04-5.28,0-10.57.01-15.85,0-22.38-.01-44.76.02-67.15.01-6.06.95-6.97,6.97-7.09,1.95-.04,3.89-.03,5.84-.02,6.33.02,7.32,1.04,7.32,7.57-.01,13.62-.01,27.24-.01,40.87Z"/>
</svg>